0
SECTION
2
HEADER
9
$INSUNITS
70
4
9
$ACADVER
1
AC1014
9
$HANDSEED
5
FFFF
0
ENDSEC
0
SECTION
2
TABLES
0
TABLE
2
VPORT
5
8
100
AcDbSymbolTable
0
ENDTAB
0
TABLE
2
LTYPE
5
5
100
AcDbSymbolTable
0
LTYPE
5
14
100
AcDbSymbolTableRecord
100
AcDbLinetypeTableRecord
2
BYBLOCK
70
0
0
LTYPE
5
15
100
AcDbSymbolTableRecord
100
AcDbLinetypeTableRecord
2
BYLAYER
70
0
0
ENDTAB
0
TABLE
2
LAYER
5
2
100
AcDbSymbolTable
70
2
0
LAYER
5
50
100
AcDbSymbolTableRecord
100
AcDbLayerTableRecord
2
0
70
0
6
CONTINUOUS
0
ENDTAB
0
TABLE
2
STYLE
5
3
100
AcDbSymbolTable
70
1
0
STYLE
5
11
100
AcDbSymbolTableRecord
100
AcDbTextStyleTableRecord
2
STANDARD
70
0
0
ENDTAB
0
TABLE
2
VIEW
5
6
100
AcDbSymbolTable
70
0
0
ENDTAB
0
TABLE
2
UCS
5
7
100
AcDbSymbolTable
70
0
0
ENDTAB
0
TABLE
2
APPID
5
9
100
AcDbSymbolTable
70
2
0
APPID
5
12
100
AcDbSymbolTableRecord
100
AcDbRegAppTableRecord
2
ACAD
70
0
0
ENDTAB
0
TABLE
2
DIMSTYLE
5
A
100
AcDbSymbolTable
70
1
0
ENDTAB
0
TABLE
2
BLOCK_RECORD
5
1
100
AcDbSymbolTable
70
1
0
BLOCK_RECORD
5
1F
100
AcDbSymbolTableRecord
100
AcDbBlockTableRecord
2
*MODEL_SPACE
0
BLOCK_RECORD
5
1B
100
AcDbSymbolTableRecord
100
AcDbBlockTableRecord
2
*PAPER_SPACE
0
ENDTAB
0
ENDSEC
0
SECTION
2
BLOCKS
0
BLOCK
5
20
100
AcDbEntity
100
AcDbBlockBegin
2
*MODEL_SPACE
0
ENDBLK
5
21
100
AcDbEntity
100
AcDbBlockEnd
0
BLOCK
5
1C
100
AcDbEntity
100
AcDbBlockBegin
2
*PAPER_SPACE
0
ENDBLK
5
1D
100
AcDbEntity
100
AcDbBlockEnd
0
ENDSEC
0
SECTION
2
ENTITIES
0
LWPOLYLINE
5
100
100
AcDbEntity
8
0
100
AcDbPolyline
90
22
70
1
43
0.0
10
46.849999999999994
20
0
10
46.849999999999994
20
66.850000000000009
10
43.149999999999991
20
66.850000000000009
10
43.149999999999991
20
2.8772605212468834e-16
10
41.000000000000014
20
0
10
41.000000000000014
20
3.6999999999999922
10
40
20
3.6999999999999966
42
-0.41421356237309515
10
25.000000000000007
20
18.699999999999992
10
25.000000000000004
20
71.867840433800765
42
0.36597738186304091
10
23.333333333333329
20
73.839867028167305
42
-0.36597738186304368
10
14.999999999999998
20
83.699999999999989
10
15.000000000000014
20
108.70000000000002
42
-0.41421356237309548
10
39.999999999999993
20
133.69999999999999
10
49.999999999999993
20
133.69999999999999
42
-0.41421356237309576
10
75
20
108.70000000000002
10
75.000000000000014
20
83.700000000000017
42
-0.36597738186304352
10
66.666666666666671
20
73.839867028167291
42
0.36597738186304363
10
65
20
71.867840433800765
10
64.999999999999986
20
18.699999999999996
42
-0.41421356237309542
10
50.000000000000007
20
3.6999999999999922
10
48.40000000000002
20
3.6999999999999926
10
48.40000000000002
20
2.8772605212468834e-16
0
LWPOLYLINE
5
101
100
AcDbEntity
8
0
100
AcDbPolyline
90
22
70
1
43
0.0
10
43.149999999999991
20
66.850000000000009
10
46.849999999999994
20
66.850000000000009
10
46.849999999999994
20
1.7763568394002505e-14
10
48.40000000000002
20
1.8318679906315083e-14
10
48.400000000000006
20
3.7000000000000095
10
50
20
3.7000000000000099
42
0.41421356237309492
10
65.000000000000014
20
18.699999999999982
10
64.999999999999972
20
71.867840433800765
42
-0.36597738186304402
10
66.666666666666671
20
73.839867028167305
42
0.3659773818630439
10
75
20
83.699999999999989
10
75
20
108.70000000000002
42
0.4142135623730952
10
50.000000000000036
20
133.70000000000002
10
40
20
133.70000000000002
42
0.4142135623730952
10
15.000000000000002
20
108.70000000000003
10
14.999999999999996
20
83.700000000000017
42
0.36597738186304435
10
23.333333333333336
20
73.839867028167291
42
-0.36597738186304007
10
25
20
71.867840433800765
10
25.000000000000007
20
18.700000000000021
42
0.41421356237309509
10
40
20
3.7000000000000095
10
41.000000000000014
20
3.7000000000000104
10
41.000000000000007
20
1.7598175090898687e-14
10
43.149999999999991
20
1.7763568394002505e-14
0
LWPOLYLINE
5
102
100
AcDbEntity
8
0
100
AcDbPolyline
90
12
70
1
43
0.0
10
3.5233002363921084
20
90.549999999999997
10
10.109965103202239
20
90.549999999999997
42
0.27672755474550648
10
7.0233002363921093
20
92.400000000000006
10
-4.2266997636078907
20
92.400000000000006
10
-4.2266997636078907
20
88.700000000000017
10
-11.626699763607892
20
88.700000000000017
10
-11.626699763607892
20
92.400000000000006
10
-13.476699763607892
20
92.400000000000006
10
-13.476699763607892
20
85
10
7.0233002363921093
20
85
42
0.27672755474550648
10
10.109965103202239
20
86.850000000000009
10
3.5233002363921084
20
86.850000000000009
0
LWPOLYLINE
5
103
100
AcDbEntity
8
0
100
AcDbPolyline
90
10
70
1
43
0.0
10
-62.599999999999994
20
103.0000001490116
10
-62.599999999999994
20
102.00000014901161
42
0.41421356237309503
10
-55.599999999999994
20
95.000000149011612
10
-7.0000000000000018
20
95.000000149011612
42
0.35844781572014933
10
-0.13141208107517954
20
100.6500001490116
10
-31.299999999999997
20
100.6500001490116
10
-31.299999999999997
20
104.35000014901162
10
-0.13141208107517954
20
104.35000014901162
42
0.35844781572014961
10
-7.0000000000000018
20
110.00000014901161
10
-55.599999999999987
20
110.00000014901161
42
0.41421356237309503
0
LWPOLYLINE
5
104
100
AcDbEntity
8
0
100
AcDbPolyline
90
10
70
1
43
0.0
10
-63.599999999999994
20
123.0000001490116
10
-63.599999999999994
20
122.00000014901161
42
0.41421356237309503
10
-56.599999999999994
20
115.00000014901161
10
-8.0000000000000018
20
115.00000014901161
42
0.35844781572014933
10
-1.1314120810751804
20
120.6500001490116
10
-32.299999999999997
20
120.6500001490116
10
-32.299999999999997
20
124.35000014901162
10
-1.1314120810751793
20
124.35000014901162
42
0.3584478157201495
10
-7.9999999999999982
20
130.00000014901161
10
-56.59999999999998
20
130.00000014901161
42
0.41421356237309503
0
LWPOLYLINE
5
105
100
AcDbEntity
8
0
100
AcDbPolyline
90
12
70
1
43
0.0
10
-39.399999999999984
20
141.25000000000023
10
-39.399999999999984
20
144.95000000000024
10
-31.999999999999986
20
144.95000000000024
10
-31.999999999999986
20
146.10000000000025
42
0.41421356237309453
10
-38.999999999999979
20
153.10000000000025
10
-54.999999999999986
20
153.10000000000025
42
0.41421356237309392
10
-61.999999999999986
20
146.10000000000019
10
-61.999999999999986
20
140.10000000000022
42
0.41421356237309803
10
-54.999999999999986
20
133.10000000000025
10
-38.999999999999986
20
133.10000000000022
42
0.41421356237309342
10
-31.999999999999979
20
140.10000000000022
10
-31.999999999999986
20
141.25000000000023
0
LWPOLYLINE
5
106
100
AcDbEntity
8
0
100
AcDbPolyline
90
18
70
1
43
0.0
10
-64.429654853298288
20
15.901256645379915
10
-59.289987218496748
20
10.761588665936738
42
0.35844781572015044
10
-60.151658702654785
20
19.613567103178273
10
-63.486182647764096
20
22.948091271884845
42
-0.19891235866611515
10
-64.950648623293347
20
26.483625059279525
10
-64.950648623293347
20
141.19935420461803
42
0.41421356237309503
10
-71.950648623293333
20
148.199354204618
10
-72.950648623293347
20
148.199354204618
42
0.24884045694603471
10
-78.746714099114001
20
145.12435420461802
10
-72.550648623293341
20
145.12435420461802
10
-72.550648623293341
20
141.424354204618
10
-79.947031617383928
20
141.424354204618
42
0.0080372716867056822
10
-79.950648623293347
20
141.19935420461803
10
-79.950648623293347
20
20.270421918283379
42
0.19891235866611617
10
-78.486182647764082
20
16.73488813088866
10
-70.758260776067033
20
9.006965740994076
42
0.35844781572014961
10
-61.906282396605079
20
8.1452936632646527
10
-67.045950031406676
20
13.284961642707788
0
LWPOLYLINE
5
107
100
AcDbEntity
8
0
100
AcDbPolyline
90
14
70
1
43
0.0
10
-80.151658702654785
20
9.6135671031782692
42
-0.35844781572015039
10
-79.289987218496748
20
0.76158866593673769
10
-84.429654853298288
20
5.9012566453799176
10
-87.045950031406676
20
3.2849616427077901
10
-81.906282396605093
20
-1.8547063367353505
42
-0.35844781572014861
10
-90.758260776067004
20
-0.99303425900593045
10
-98.486182647764068
20
6.7348881308886703
42
-0.19891235866611573
10
-99.950648623293318
20
10.270421918283379
10
-99.950648623293347
20
131.19935420461803
42
-0.41421356237309503
10
-92.950648623293347
20
138.199354204618
10
-91.950648623293333
20
138.199354204618
42
-0.41421356237309503
10
-84.950648623293347
20
131.19935420461803
10
-84.950648623293347
20
16.483625059279525
42
0.19891235866611537
10
-83.48618264776411
20
12.948091271884836
0
LWPOLYLINE
5
108
100
AcDbEntity
8
0
100
AcDbPolyline
90
12
70
1
43
0.0
10
-46.700000000000003
20
-5.0000000000000044
10
-46.700000000000003
20
-1.3000000000000025
10
-43.000000000000007
20
-1.3000000000000023
10
-43.000000000000007
20
-5.0000000000000009
10
-24.5
20
-5.0000000000000009
42
0.41421356237309492
10
-20
20
-0.500000000000002
10
-20
20
0.5
42
0.41421356237309503
10
-24.5
20
5
10
-65.5
20
4.9999999999999982
42
0.41421356237309531
10
-70
20
0.49999999999999889
10
-70.000000000000014
20
-0.500000000000002
42
0.41421356237309576
10
-65.5
20
-5.0000000000000009
0
LWPOLYLINE
5
109
100
AcDbEntity
8
0
100
AcDbPolyline
90
4
70
1
43
0.0
10
-51.150000044703489
20
16.546477169964547
10
-51.150000044703489
20
13.000000044703482
10
-54.850000044703492
20
13.000000044703482
10
-54.850000044703492
20
16.546477169964547
42
4.0791768244654376
0
LWPOLYLINE
5
110
100
AcDbEntity
8
0
100
AcDbPolyline
90
12
70
1
43
0.0
10
-54.350000000000009
20
20.131412081075176
10
-54.350000000000009
20
51.29999999999999
10
-50.649999999999991
20
51.299999999999997
10
-50.650000000000006
20
20.13141208107518
42
0.35844781572014933
10
-45
20
27
10
-45
20
83.000000000000028
42
0.35844781572014889
10
-50.650000000000006
20
89.868587918924817
10
-50.650000000000006
20
82.59999999999998
10
-54.350000000000009
20
82.599999999999994
10
-54.350000000000009
20
89.868587918924817
42
0.35844781572014922
10
-60
20
83
10
-60
20
27
42
0.358447815720149
0
LWPOLYLINE
5
111
100
AcDbEntity
8
0
100
AcDbPolyline
90
12
70
1
43
0.0
10
-34.350000000000009
20
20.131412081075176
10
-34.350000000000009
20
51.29999999999999
10
-30.650000000000006
20
51.299999999999997
10
-30.650000000000006
20
20.13141208107518
42
0.35844781572014933
10
-25
20
27
10
-25
20
83.000000000000028
42
0.35844781572014889
10
-30.650000000000006
20
89.868587918924817
10
-30.650000000000006
20
82.59999999999998
10
-34.350000000000009
20
82.599999999999994
10
-34.350000000000009
20
89.868587918924817
42
0.35844781572014922
10
-40
20
83
10
-40
20
27
42
0.358447815720149
0
LWPOLYLINE
5
112
100
AcDbEntity
8
0
100
AcDbPolyline
90
12
70
1
43
0.0
10
-40.599999999999994
20
13.324999999999998
10
-40.599999999999994
20
9.6249999999999964
10
-47.686527497552291
20
9.6249999999999964
42
0.25622800931333878
10
-46
20
8.6999999999999922
10
-31.999999999999993
20
8.6999999999999957
42
0.25622800931334022
10
-30.313472502447706
20
9.6249999999999964
10
-37.399999999999999
20
9.6249999999999964
10
-37.399999999999999
20
13.324999999999998
10
-30.313472502447702
20
13.324999999999998
42
0.25622800931334161
10
-31.999999999999996
20
14.249999999999998
10
-46
20
14.249999999999998
42
0.25622800931333856
10
-47.686527497552277
20
13.324999999999994
0
LWPOLYLINE
5
113
100
AcDbEntity
8
0
100
AcDbPolyline
90
16
70
1
43
0.0
10
1.8499998956918522
20
37.114253689254838
10
1.8499998956918522
20
17.864253689254841
10
-1.8500001043081482
20
17.864253689254841
10
-1.8500001043081482
20
37.114253689254838
42
0.31633066714584451
10
-19.364916831474783
20
22.20000001499011
10
-15.000000291075803
20
22.200000011611287
10
-15.000000291075802
20
12.199999988388701
10
-19.36491683147478
20
12.19999998500988
42
0.24486110835122105
10
-7.0000001043081284
20
-1.5349939951951941
10
-7.0000001043081284
20
-5.0000000000000009
10
-5.0000001043081284
20
-5.0000000000000009
10
-5.0000001043081284
20
-1.3000000000000009
10
4.9999998956918716
20
-1.3000000000000007
10
4.9999998956918716
20
-5.0000000000000009
10
6.9999998956918734
20
-5.0000000000000009
10
6.9999998956918708
20
-1.5349939951951952
42
0.79689909224290367
0
LWPOLYLINE
5
114
100
AcDbEntity
8
0
100
AcDbPolyline
90
16
70
1
43
0.0
10
-19.364916835345213
20
67.200000000000003
10
-14.364916835345213
20
67.200000000000003
10
-14.364916835345213
20
57.199999999999996
10
-19.364916835345213
20
57.200000000000003
42
0.2448611085563456
10
-7.0000001043081284
20
43.465006004804813
10
-7.0000001043081284
20
40
10
-5.0000001043081284
20
40
10
-5.0000001043081284
20
43.700000000000003
10
-1.6999999701976782
20
43.700000000000003
10
-1.6999999701976782
20
62.950000000000003
10
2.0000000298023224
20
62.950000000000003
10
2.0000000298023224
20
43.700000000000003
10
4.9999998956918716
20
43.700000000000003
10
4.9999998956918716
20
40
10
6.9999998956918734
20
40
10
6.9999998956918708
20
43.465006004804813
42
1.6485193951227355
0
LWPOLYLINE
5
115
100
AcDbEntity
8
0
100
AcDbPolyline
90
10
70
1
43
0.0
10
11.149999940395361
20
129.00000017881393
10
11.149999940395361
20
122.00000017881393
10
12.999999940395357
20
122.00000017881393
10
12.999999940395352
20
132.50000017881393
42
0.41421356237309503
10
9.4999999403953517
20
136.00000017881393
10
9.0999999403953602
20
136.00000017881393
42
0.41421356237309503
10
5.5999999403953549
20
132.50000017881393
10
5.5999999403953549
20
122.00000017881393
10
7.449999940395351
20
122.00000017881393
10
7.4499999403953598
20
129.00000017881393
0
LWPOLYLINE
5
116
100
AcDbEntity
8
0
100
AcDbPolyline
90
34
70
1
43
0.0
10
105
20
133.69999999999999
10
105
20
130
42
-0.41421356237309542
10
119.99999999999999
20
115
10
112.59999999999999
20
115
10
112.59999999999998
20
111.30000000000003
10
120
20
111.30000000000003
10
120
20
61.832159566199238
42
0.36597738186303741
10
121.66666666666663
20
59.860132971832705
42
-0.36597738186304568
10
130
20
50
10
130
20
24.999999999999993
42
-0.17973125464916292
10
123.93734917204142
20
8.6789459183488091
10
119.3837049096098
20
13.232590180780395
10
116.76740981921961
20
10.616295090390192
10
121.32105408165118
20
6.0626508279585796
42
-0.17973125464916281
10
105.00000000000001
20
1.5239860721673978e-15
10
101.85000000000001
20
0
10
101.85000000000001
20
66.849999999999994
10
98.149999999999991
20
66.849999999999994
10
98.149999999999991
20
0
10
95.000000000000014
20
-6.6613381477509392e-15
42
-0.17973125464916292
10
78.678945918348816
20
6.0626508279585876
10
83.232590180780392
20
10.61629509039019
10
80.616295090390196
20
13.232590180780386
10
76.062650827958578
20
8.6789459183488233
42
-0.1797312546491627
10
70
20
24.999999999999993
10
69.999999999999986
20
50
42
-0.3659773818630439
10
78.333333333333329
20
59.860132971832698
42
0.36597738186304135
10
79.999999999999986
20
61.832159566199238
10
80
20
111.30000000000003
10
87.40000000000002
20
111.30000000000001
10
87.40000000000002
20
115
10
80
20
115
42
-0.41421356237309503
10
95
20
130
10
95
20
133.69999999999999
0
LWPOLYLINE
5
117
100
AcDbEntity
8
0
100
AcDbPolyline
90
14
70
1
43
0.0
10
-86.90452867516936
20
3.2849616379662665
10
-81.750357760759741
20
-1.8692096220574095
42
-0.36327792551195576
10
-90.828971456556431
20
-1.0637449347538253
10
-98.556893328253494
20
6.6641774551407762
42
-0.19891235866611584
10
-100.05064862329333
20
10.270421918283379
10
-100.05064862329334
20
131.19935420461803
42
-0.41421356237309503
10
-92.950648623293347
20
138.299354204618
10
-91.950648623293333
20
138.299354204618
42
-0.41421356237309503
10
-84.850648623293353
20
131.19935420461803
10
-84.850648623293353
20
16.483625059279525
42
0.19891235866611559
10
-83.415471967274684
20
13.018801947632731
10
-80.080948022165359
20
9.6842777789261554
42
-0.36327792551195648
10
-79.275483943630263
20
0.60566402911888861
10
-84.429654858039811
20
5.759835289142603
0
LWPOLYLINE
5
118
100
AcDbEntity
8
0
100
AcDbPolyline
90
18
70
1
43
0.0
10
-66.904528675169374
20
13.284961637966269
10
-64.429654858039811
20
15.759835289142607
10
-59.275483943630256
20
10.605664029118888
42
0.36327792551195692
10
-60.080948022165373
20
19.684277778926166
10
-63.415471967274684
20
23.018801947632738
42
-0.19891235866611537
10
-64.850648623293353
20
26.483625059279525
10
-64.850648623293353
20
141.19935420461803
42
0.41421356237309503
10
-71.950648623293333
20
148.299354204618
10
-72.950648623293347
20
148.299354204618
42
0.2558385124789509
10
-78.93223495135048
20
145.02435420461802
10
-72.650648623293336
20
145.02435420461802
10
-72.650648623293336
20
141.52435420461802
10
-80.043206342480403
20
141.52435420461802
42
0.011448162191546075
10
-80.050648623293341
20
141.19935420461803
10
-80.050648623293341
20
20.270421918283379
42
0.19891235866611615
10
-78.556893328253508
20
16.664177455140766
10
-70.828971456556445
20
8.936255065246181
42
0.36327792551195592
10
-61.750357760759755
20
8.1307903779425956
0
LWPOLYLINE
5
119
100
AcDbEntity
8
0
100
AcDbPolyline
90
4
70
1
43
0.0
10
-51.250000044703476
20
16.707762172995963
42
-4.4615783590242586
10
-54.750000044703491
20
16.707762172995963
10
-54.750000044703491
20
13.100000044703481
10
-51.250000044703484
20
13.100000044703481
0
LWPOLYLINE
5
120
100
AcDbEntity
8
0
100
AcDbPolyline
90
12
70
1
43
0.0
10
-54.250000000000007
20
20.010901345666955
10
-54.250000000000007
20
51.199999999999989
10
-50.749999999999993
20
51.200000000000003
10
-50.75
20
20.010901345666952
42
0.3632779255119557
10
-44.900000000000006
20
27
10
-44.900000000000006
20
83.000000000000028
42
0.36327792551195531
10
-50.75
20
89.989098654333048
10
-50.75
20
82.699999999999974
10
-54.250000000000007
20
82.699999999999989
10
-54.250000000000007
20
89.989098654333048
42
0.36327792551195565
10
-60.099999999999994
20
83
10
-60.099999999999994
20
27
42
0.36327792551195537
0
LWPOLYLINE
5
121
100
AcDbEntity
8
0
100
AcDbPolyline
90
12
70
1
43
0.0
10
-34.250000000000007
20
20.010901345666955
10
-34.250000000000007
20
51.199999999999989
10
-30.75
20
51.200000000000003
10
-30.75
20
20.010901345666952
42
0.3632779255119557
10
-24.900000000000002
20
27
10
-24.900000000000002
20
83.000000000000028
42
0.36327792551195531
10
-30.75
20
89.989098654333048
10
-30.75
20
82.699999999999974
10
-34.250000000000007
20
82.699999999999989
10
-34.250000000000007
20
89.989098654333048
42
0.36327792551195565
10
-40.099999999999994
20
83
10
-40.099999999999994
20
27
42
0.36327792551195537
0
LWPOLYLINE
5
122
100
AcDbEntity
8
0
100
AcDbPolyline
90
12
70
1
43
0.0
10
-30.140060484854409
20
9.7249999999999996
42
-0.27890399714029113
10
-31.999999999999993
20
8.5999999999999961
10
-46
20
8.5999999999999925
42
-0.27890399714028907
10
-47.859939515145584
20
9.7249999999999979
10
-40.699999999999996
20
9.7249999999999979
10
-40.699999999999996
20
13.224999999999998
10
-47.859939515145584
20
13.224999999999991
42
-0.27890399714028968
10
-46
20
14.349999999999998
10
-31.999999999999996
20
14.350000000000003
42
-0.27890399714029207
10
-30.140060484854409
20
13.224999999999998
10
-37.299999999999997
20
13.224999999999998
10
-37.299999999999997
20
9.7249999999999979
0
LWPOLYLINE
5
123
100
AcDbEntity
8
0
100
AcDbPolyline
90
12
70
1
43
0.0
10
-24.5
20
5.1000000000000014
42
-0.41421356237309503
10
-19.899999999999999
20
0.5
10
-19.899999999999999
20
-0.50000000000000144
42
-0.41421356237309492
10
-24.5
20
-5.1000000000000014
10
-43.100000000000009
20
-5.1000000000000014
10
-43.100000000000009
20
-1.4000000000000026
10
-46.600000000000001
20
-1.4000000000000024
10
-46.600000000000001
20
-5.100000000000005
10
-65.5
20
-5.1000000000000032
42
-0.41421356237309581
10
-70.100000000000009
20
-0.50000000000000111
10
-70.100000000000009
20
0.49999999999999789
42
-0.41421356237309531
10
-65.5
20
5.0999999999999979
0
LWPOLYLINE
5
124
100
AcDbEntity
8
0
100
AcDbPolyline
90
16
70
1
43
0.0
10
1.7499998956918561
20
37.223673489147792
10
1.7499998956918521
20
17.964253689254839
10
-1.7500001043081481
20
17.964253689254839
10
-1.7500001043081479
20
37.223673489147799
42
0.31959955253780109
10
-19.493588790133032
20
22.100000015089716
10
-15.100000291075803
20
22.100000011688699
10
-15.100000291075801
20
12.299999988311292
10
-19.493588790133035
20
12.299999984910277
42
0.24564645817623817
10
-7.100000104308128
20
-1.6042548376690502
10
-7.100000104308128
20
-5.1000000000000014
10
-4.9000001043081287
20
-5.1000000000000014
10
-4.9000001043081287
20
-1.400000000000001
10
4.8999998956918711
20
-1.4000000000000008
10
4.8999998956918711
20
-5.1000000000000014
10
7.0999998956918731
20
-5.1000000000000014
10
7.0999998956918713
20
-1.6042548376690546
42
0.7977181498125524
0
LWPOLYLINE
5
125
100
AcDbEntity
8
0
100
AcDbPolyline
90
22
70
1
43
0.0
10
40.90000000000002
20
3.6000000000000103
10
40.900000000000006
20
-0.09999999999998245
10
43.249999999999993
20
-0.099999999999980105
10
43.249999999999993
20
66.75
10
46.75
20
66.75
10
46.75
20
-0.099999999999980105
10
48.500000000000014
20
-0.09999999999998177
10
48.500000000000007
20
3.6000000000000094
10
50
20
3.6000000000000121
42
0.41421356237309492
10
65.100000000000023
20
18.699999999999982
10
65.099999999999966
20
71.867840433800765
42
-0.36597738186304457
10
66.683333333333337
20
73.741265698448984
42
0.36597738186304379
10
75.099999999999994
20
83.699999999999989
10
75.099999999999994
20
108.70000000000002
42
0.4142135623730952
10
50.000000000000036
20
133.80000000000001
10
40
20
133.80000000000001
42
0.4142135623730952
10
14.900000000000002
20
108.70000000000003
10
14.899999999999995
20
83.700000000000017
42
0.36597738186304429
10
23.316666666666666
20
73.741265698448956
42
-0.36597738186304013
10
24.900000000000002
20
71.867840433800765
10
24.900000000000013
20
18.700000000000021
42
0.41421356237309509
10
40
20
3.6000000000000094
0
LWPOLYLINE
5
126
100
AcDbEntity
8
0
100
AcDbPolyline
90
34
70
1
43
0.0
10
98.25
20
-0.099999999999997868
10
95
20
-0.10000000000000231
42
-0.1808386083529871
10
78.532246949992825
20
6.0573732158399025
10
83.091168824543075
20
10.616295090390185
10
80.616295090390196
20
13.091168824543068
10
76.057373215839888
20
8.5322469499928353
42
-0.18083860835298687
10
69.900000000000006
20
24.999999999999993
10
69.899999999999991
20
50
42
-0.36597738186304385
10
78.316666666666663
20
59.958734301551019
42
0.36597738186304168
10
79.899999999999991
20
61.832159566199238
10
79.900000000000006
20
111.40000000000002
10
87.300000000000026
20
111.40000000000001
10
87.300000000000026
20
114.90000000000001
10
79.900331129458507
20
114.90000000000001
42
-0.41421356237309503
10
94.900000000000006
20
130.09966887054151
10
94.900000000000006
20
133.79999999999998
10
105.09999999999999
20
133.79999999999998
10
105.09999999999999
20
130.09966887054151
42
-0.41421356237309542
10
120.09966887054148
20
114.90000000000001
10
112.69999999999999
20
114.90000000000001
10
112.69999999999997
20
111.40000000000002
10
120.09999999999999
20
111.40000000000002
10
120.09999999999999
20
61.832159566199238
42
0.36597738186303758
10
121.68333333333329
20
59.958734301551033
42
-0.36597738186304557
10
130.09999999999999
20
50
10
130.09999999999999
20
25.000000000000007
42
-0.18083860835298735
10
123.94262678416011
20
8.5322469499928122
10
119.3837049096098
20
13.091168824543079
10
116.90883117545694
20
10.61629509039019
10
121.46775305000718
20
6.057373215839899
42
-0.1808386083529871
10
105.00000000000001
20
-0.099999999999998493
10
101.75
20
-0.099999999999997868
10
101.75
20
66.75
10
98.25
20
66.75
0
LWPOLYLINE
5
127
100
AcDbEntity
8
0
100
AcDbPolyline
90
16
70
1
43
0.0
10
-19.493588793926051
20
67.099999999999994
10
-14.464916835345212
20
67.099999999999994
10
-14.464916835345212
20
57.299999999999997
10
-19.493588793926058
20
57.300000000000004
42
0.24564645838143723
10
-7.100000104308128
20
43.395745162330961
10
-7.100000104308128
20
39.900000000000006
10
-4.9000001043081287
20
39.900000000000006
10
-4.9000001043081287
20
43.600000000000001
10
-1.5999999701976781
20
43.600000000000001
10
-1.5999999701976781
20
62.850000000000001
10
1.9000000298023223
20
62.850000000000001
10
1.9000000298023223
20
43.600000000000001
10
4.8999998956918711
20
43.600000000000001
10
4.8999998956918711
20
39.900000000000006
10
7.0999998956918731
20
39.900000000000006
10
7.0999998956918695
20
43.395745162330954
42
1.6512767418162337
0
LWPOLYLINE
5
128
100
AcDbEntity
8
0
100
AcDbPolyline
90
12
70
1
43
0.0
10
10.272530914568094
20
86.950000000000003
10
3.6233002363921085
20
86.950000000000003
10
3.6233002363921085
20
90.450000000000003
10
10.272530914568097
20
90.450000000000003
42
0.28909456794327831
10
7.0233002363921093
20
92.5
10
-4.3266997636078912
20
92.5
10
-4.3266997636078912
20
88.800000000000011
10
-11.526699763607892
20
88.800000000000011
10
-11.526699763607892
20
92.5
10
-13.576699763607891
20
92.5
10
-13.576699763607891
20
84.900000000000006
10
7.0233002363921093
20
84.900000000000006
42
0.2890945679432782
0
LWPOLYLINE
5
129
100
AcDbEntity
8
0
100
AcDbPolyline
90
10
70
1
43
0.0
10
-55.599999999999994
20
94.900000149011589
42
-0.41421356237309503
10
-62.699999999999996
20
102.00000014901161
10
-62.699999999999996
20
103.0000001490116
42
-0.41421356237309503
10
-55.599999999999987
20
110.10000014901161
10
-7.0000000000000018
20
110.10000014901161
42
-0.36327792551195598
10
-0.010901345666951556
20
104.25000014901161
10
-31.200000000000003
20
104.25000014901161
10
-31.200000000000003
20
100.75000014901161
10
-0.010901345666961548
20
100.75000014901163
42
-0.36327792551195637
10
-7.0000000000000018
20
94.900000149011618
0
LWPOLYLINE
5
130
100
AcDbEntity
8
0
100
AcDbPolyline
90
10
70
1
43
0.0
10
-56.599999999999994
20
114.90000014901159
42
-0.41421356237309503
10
-63.699999999999989
20
122.00000014901161
10
-63.699999999999989
20
123.0000001490116
42
-0.41421356237309503
10
-56.59999999999998
20
130.10000014901161
10
-7.9999999999999982
20
130.10000014901163
42
-0.36327792551195587
10
-1.0109013456669524
20
124.25000014901161
10
-32.200000000000003
20
124.25000014901161
10
-32.199999999999996
20
120.75000014901161
10
-1.0109013456669613
20
120.75000014901163
42
-0.36327792551195637
10
-7.9999999999999982
20
114.90000014901162
0
LWPOLYLINE
5
131
100
AcDbEntity
8
0
100
AcDbPolyline
90
10
70
1
43
0.0
10
7.5499999403953506
20
121.90000017881394
10
5.4999999403953552
20
121.90000017881394
10
5.4999999403953659
20
132.50000017881393
42
-0.41421356237309503
10
9.0999999403953602
20
136.10000017881393
10
9.4999999403953517
20
136.10000017881393
42
-0.41421356237309503
10
13.099999940395353
20
132.50000017881393
10
13.099999940395357
20
121.90000017881394
10
11.049999940395361
20
121.90000017881394
10
11.049999940395361
20
128.90000017881394
10
7.5499999403953595
20
128.90000017881394
0
LWPOLYLINE
5
132
100
AcDbEntity
8
0
100
AcDbPolyline
90
12
70
1
43
0.0
10
-31.899999999999981
20
140.10000000000022
10
-31.899999999999984
20
141.35000000000022
10
-39.29999999999999
20
141.35000000000022
10
-39.29999999999999
20
144.85000000000025
10
-31.899999999999984
20
144.85000000000025
10
-31.899999999999984
20
146.10000000000025
42
0.41421356237309453
10
-38.999999999999979
20
153.20000000000024
10
-54.999999999999986
20
153.20000000000024
42
0.41421356237309392
10
-62.09999999999998
20
146.10000000000019
10
-62.09999999999998
20
140.10000000000022
42
0.41421356237309798
10
-54.999999999999986
20
133.00000000000023
10
-38.999999999999986
20
133.00000000000023
42
0.41421356237309342
0
ENDSEC
0
SECTION
2
OBJECTS
0
DICTIONARY
5
C
100
AcDbDictionary
3
ACAD_GROUP
350
D
3
ACAD_MLINESTYLE
350
17
0
DICTIONARY
5
D
100
AcDbDictionary
0
DICTIONARY
5
1A
330
C
100
AcDbDictionary
0
DICTIONARY
5
17
100
AcDbDictionary
0
ENDSEC
0
EOF
