<?xml version="1.0" encoding="UTF-8" standalone="no"?>
<svg
   xmlns:dc="http://purl.org/dc/elements/1.1/"
   xmlns:cc="http://creativecommons.org/ns#"
   xmlns:rdf="http://www.w3.org/1999/02/22-rdf-syntax-ns#"
   xmlns:svg="http://www.w3.org/2000/svg"
   xmlns="http://www.w3.org/2000/svg"
   xmlns:sodipodi="http://sodipodi.sourceforge.net/DTD/sodipodi-0.dtd"
   xmlns:inkscape="http://www.inkscape.org/namespaces/inkscape"
   viewBox="0 0 793.7007874015749 1122.5196850393702"
   width="793.7007874015749"
   height="1122.5196850393702"
   version="1.1"
   id="svg1197"
   sodipodi:docname="APINN_ready.svg"
   inkscape:version="1.0.2 (e86c870879, 2021-01-15)">
  <metadata
     id="metadata1201">
    <rdf:RDF>
      <cc:Work
         rdf:about="">
        <dc:format>image/svg+xml</dc:format>
        <dc:type
           rdf:resource="http://purl.org/dc/dcmitype/StillImage" />
        <dc:title></dc:title>
      </cc:Work>
    </rdf:RDF>
  </metadata>
  <sodipodi:namedview
     pagecolor="#ffffff"
     bordercolor="#666666"
     borderopacity="1"
     objecttolerance="10"
     gridtolerance="10"
     guidetolerance="10"
     inkscape:pageopacity="0"
     inkscape:pageshadow="2"
     inkscape:window-width="2560"
     inkscape:window-height="1361"
     id="namedview1199"
     showgrid="false"
     inkscape:zoom="1"
     inkscape:cx="-4.1483562"
     inkscape:cy="803.04772"
     inkscape:window-x="1911"
     inkscape:window-y="-9"
     inkscape:window-maximized="1"
     inkscape:current-layer="g1193" />
  <defs
     id="defs1125">
    <marker
       id="DistanceX"
       orient="auto"
       refX="0.0"
       refY="0.0"
       style="overflow:visible">
      <path
         d="M 3,-3 L -3,3 M 0,-5 L  0,5"
         style="stroke:#000000; stroke-width:0.5"
         id="path1113" />
    </marker>
    <pattern
       id="Hatch"
       patternUnits="userSpaceOnUse"
       width="8"
       height="8"
       x="0"
       y="0">
      <path
         d="M8 4 l-4,4"
         stroke="#000000"
         stroke-width="0.25"
         linecap="square"
         id="path1116" />
      <path
         d="M6 2 l-4,4"
         stroke="#000000"
         stroke-width="0.25"
         linecap="square"
         id="path1118" />
      <path
         d="M4 0 l-4,4"
         stroke="#000000"
         stroke-width="0.25"
         linecap="square"
         id="path1120" />
    </pattern>
    <symbol
       id="*MODEL_SPACE" />
    <symbol
       id="*PAPER_SPACE" />
  </defs>
  <g
     inkscape:groupmode="layer"
     inkscape:label="0"
     id="g1193">
    <path
       d="M -328.458061,1110.104082 L -308.977730,1129.584414 A 26.834646,26.834646 0.0 0 1 -343.290601,1126.540138 L -372.498494,1097.332243 A 19.275591,19.275591 0.0 0 1 -378.144184,1083.702342 L -378.144184,626.648110 A 26.834646,26.834646 0.0 0 1 -351.309538,599.813464 L -347.530011,599.813464 A 26.834646,26.834646 0.0 0 1 -320.695365,626.648110 L -320.695365,1060.219370 A 18.519685,18.519685 0.0 0 0 -315.271075,1073.314764 L -302.668150,1085.917690 A 26.834646,26.834646 0.0 0 1 -299.623876,1120.230561 L -319.104207,1100.750229 L -328.458061,1110.104082 z"
       style="fill:none;stroke:#000000;stroke-width:0.07559055;stroke-miterlimit:4;stroke-dasharray:none"
       id="path1161" />
    <path
       d="M -252.867510,1072.308806 L -243.513656,1062.954953 L -224.033325,1082.435286 A 26.834646,26.834646 0.0 0 0 -227.077599,1048.122415 L -239.680524,1035.519489 A 18.519685,18.519685 0.0 0 1 -245.104814,1022.424094 L -245.104814,588.852835 A 26.834646,26.834646 0.0 0 0 -271.939459,562.018189 L -275.718987,562.018189 A 26.834646,26.834646 0.0 0 0 -298.326557,574.396142 L -274.585129,574.396142 L -274.585129,587.624488 L -302.525504,587.624488 A 26.834646,26.834646 0.0 0 0 -302.553633,588.852835 L -302.553633,1045.907067 A 19.275591,19.275591 0.0 0 0 -296.907943,1059.536967 L -267.700050,1088.744863 A 26.834646,26.834646 0.0 0 0 -233.387179,1091.789139 L -252.867510,1072.308806 z"
       style="fill:none;stroke:#000000;stroke-width:0.07559055;stroke-miterlimit:4;stroke-dasharray:none"
       id="path1163" />
    <path
       d="M -193.700788,1059.372237 A 15.496063,15.496063 0.0 1 1 -206.929134,1059.372237 L -206.929134,1073.007874 L -193.700788,1073.007874 L -193.700788,1059.372237 z"
       style="fill:none;stroke:#000000;stroke-width:0.07559055;stroke-miterlimit:4;stroke-dasharray:none"
       id="path1165" />
    <path
       d="M -205.039370,1046.887932 L -205.039370,929.007874 L -191.811024,929.007874 L -191.811024,1046.887932 A 26.834646,26.834646 0.0 0 0 -169.700787,1020.472441 L -169.700787,808.818898 A 26.834646,26.834646 0.0 0 0 -191.811024,782.403407 L -191.811024,809.952756 L -205.039370,809.952756 L -205.039370,782.403407 A 26.834646,26.834646 0.0 0 0 -227.149606,808.818898 L -227.149606,1020.472441 A 26.834646,26.834646 0.0 0 0 -205.039370,1046.887932 z"
       style="fill:none;stroke:#000000;stroke-width:0.07559055;stroke-miterlimit:4;stroke-dasharray:none"
       id="path1167" />
    <path
       d="M -129.448819,1046.887932 L -129.448819,929.007874 L -116.220472,929.007874 L -116.220472,1046.887932 A 26.834646,26.834646 0.0 0 0 -94.110236,1020.472441 L -94.110236,808.818898 A 26.834646,26.834646 0.0 0 0 -116.220472,782.403407 L -116.220472,809.952756 L -129.448819,809.952756 L -129.448819,782.403407 A 26.834646,26.834646 0.0 0 0 -151.559055,808.818898 L -151.559055,1020.472441 A 26.834646,26.834646 0.0 0 0 -129.448819,1046.887932 z"
       style="fill:none;stroke:#000000;stroke-width:0.07559055;stroke-miterlimit:4;stroke-dasharray:none"
       id="path1169" />
    <path
       d="M -113.915189,1085.763780 A 7.937008,7.937008 0.0 0 1 -120.944882,1090.015748 L -173.858268,1090.015748 A 7.937008,7.937008 0.0 0 1 -180.887960,1085.763780 L -153.826772,1085.763780 L -153.826772,1072.535433 L -180.887960,1072.535433 A 7.937008,7.937008 0.0 0 1 -173.858268,1068.283465 L -120.944882,1068.283465 A 7.937008,7.937008 0.0 0 1 -113.915189,1072.535433 L -140.976378,1072.535433 L -140.976378,1085.763780 L -113.915189,1085.763780 z"
       style="fill:none;stroke:#000000;stroke-width:0.07559055;stroke-miterlimit:4;stroke-dasharray:none"
       id="path1171" />
    <path
       d="M -92.598425,1103.244094 A 17.385827,17.385827 0.0 0 1 -75.212598,1120.629921 L -75.212598,1124.409449 A 17.385827,17.385827 0.0 0 1 -92.598425,1141.795276 L -162.897638,1141.795276 L -162.897638,1127.811024 L -176.125984,1127.811024 L -176.125984,1141.795276 L -247.559055,1141.795276 A 17.385827,17.385827 0.0 0 1 -264.944882,1124.409449 L -264.944882,1120.629921 A 17.385827,17.385827 0.0 0 1 -247.559055,1103.244094 L -92.598425,1103.244094 z"
       style="fill:none;stroke:#000000;stroke-width:0.07559055;stroke-miterlimit:4;stroke-dasharray:none"
       id="path1173" />
    <path
       d="M 6.614173,981.831785 L 6.614173,1054.623293 L -6.614174,1054.623293 L -6.614174,981.831785 A 75.968504,75.968504 0.0 0 0 -73.676556,1038.992126 L -57.070867,1038.992126 L -57.070867,1076.031496 L -73.676556,1076.031496 A 75.968504,75.968504 0.0 0 0 -26.834646,1128.583010 L -26.834646,1141.795276 L -18.519685,1141.795276 L -18.519685,1127.811024 L 18.519685,1127.811024 L 18.519685,1141.795276 L 26.834645,1141.795276 L 26.834645,1128.583010 A 75.968504,75.968504 0.0 0 0 6.614173,981.831785 z"
       style="fill:none;stroke:#000000;stroke-width:0.07559055;stroke-miterlimit:4;stroke-dasharray:none"
       id="path1175" />
    <path
       d="M 154.582677,1108.913386 L 154.582677,1122.897638 L 163.464567,1122.897638 L 163.464567,870.236220 L 176.692913,870.236220 L 176.692913,1122.897638 L 183.307087,1122.897638 L 183.307087,1108.913386 L 188.976378,1108.913386 A 57.070866,57.070866 0.0 0 0 246.047244,1051.842520 L 246.047244,850.893202 A 7.181102,7.181102 0.0 0 1 252.031496,843.812539 A 38.173228,38.173228 0.0 0 0 283.842520,806.173228 L 283.842520,711.685039 A 94.866142,94.866142 0.0 0 0 188.976378,616.818898 L 151.181102,616.818898 A 94.866142,94.866142 0.0 0 0 56.314961,711.685039 L 56.314961,806.173228 A 38.173228,38.173228 0.0 0 0 88.125984,843.812539 A 7.181102,7.181102 0.0 0 1 94.110236,850.893202 L 94.110236,1051.842520 A 57.070866,57.070866 0.0 0 0 151.181102,1108.913386 L 154.582677,1108.913386 z"
       style="fill:none;stroke:#000000;stroke-width:0.07559055;stroke-miterlimit:4;stroke-dasharray:none"
       id="path1177" />
    <path
       d="M 371.338583,1122.897638 L 359.055118,1122.897638 A 94.866142,94.866142 0.0 0 1 296.814792,1099.625676 L 314.045362,1082.395105 L 304.691509,1073.041252 L 287.460938,1090.271823 A 94.866142,94.866142 0.0 0 1 264.188976,1028.031496 L 264.188976,933.543307 A 38.173228,38.173228 0.0 0 1 296.000000,895.903996 A 7.181102,7.181102 0.0 0 0 301.984252,888.823334 L 301.984252,701.480315 L 329.952756,701.480315 L 329.952756,688.251969 L 301.985503,688.251969 A 57.070866,57.070866 0.0 0 1 358.677165,630.804401 L 358.677165,616.818898 L 397.228346,616.818898 L 397.228346,630.804401 A 57.070866,57.070866 0.0 0 1 453.920008,688.251969 L 425.952756,688.251969 L 425.952756,701.480315 L 453.921260,701.480315 L 453.921260,888.823334 A 7.181102,7.181102 0.0 0 0 459.905512,895.903996 A 38.173228,38.173228 0.0 0 1 491.716535,933.543307 L 491.716535,1028.031496 A 94.866142,94.866142 0.0 0 1 468.444574,1090.271823 L 451.214003,1073.041252 L 441.860149,1082.395105 L 459.090720,1099.625676 A 94.866142,94.866142 0.0 0 1 396.850394,1122.897638 L 384.566929,1122.897638 L 384.566929,870.236220 L 371.338583,870.236220 L 371.338583,1122.897638 z"
       style="fill:none;stroke:#000000;stroke-width:0.07559055;stroke-miterlimit:4;stroke-dasharray:none"
       id="path1179" />
    <path
       d="M -73.676556,868.913386 L -54.670552,868.913386 L -54.670552,905.952756 L -73.676556,905.952756 A 75.968504,75.968504 0.0 0 0 -26.834646,958.504270 L -26.834646,971.716535 L -18.519685,971.716535 L -18.519685,957.732283 L -6.047244,957.732283 L -6.047244,884.976378 L 7.181102,884.976378 L 7.181102,957.732283 L 18.519685,957.732283 L 18.519685,971.716535 L 26.834645,971.716535 L 26.834645,958.504270 A 75.968504,75.968504 0.0 1 0 -73.676556,868.913386 z"
       style="fill:none;stroke:#000000;stroke-width:0.07559055;stroke-miterlimit:4;stroke-dasharray:none"
       id="path1181" />
    <path
       d="M 38.825314,793.889764 L 13.694363,793.889764 L 13.694363,780.661417 L 38.825314,780.661417 A 13.606299,13.606299 0.0 0 0 26.544757,772.913386 L -16.352881,772.913386 L -16.352881,786.897638 L -43.565479,786.897638 L -43.565479,772.913386 L -51.313511,772.913386 L -51.313511,801.637795 L 26.544757,801.637795 A 13.606299,13.606299 0.0 0 0 38.825314,793.889764 z"
       style="fill:none;stroke:#000000;stroke-width:0.07559055;stroke-miterlimit:4;stroke-dasharray:none"
       id="path1183" />
    <path
       d="M -210.141732,763.842519 A 26.834646,26.834646 0.0 0 1 -236.976378,737.007873 L -236.976378,733.228346 A 26.834646,26.834646 0.0 0 1 -210.141732,706.393700 L -26.456693,706.393700 A 26.834646,26.834646 0.0 0 1 -0.041202,728.503936 L -117.921260,728.503936 L -117.921260,741.732283 L -0.041202,741.732283 A 26.834646,26.834646 0.0 0 1 -26.456693,763.842519 L -210.141732,763.842519 z"
       style="fill:none;stroke:#000000;stroke-width:0.07559055;stroke-miterlimit:4;stroke-dasharray:none"
       id="path1185" />
    <path
       d="M -213.921260,688.251968 A 26.834646,26.834646 0.0 0 1 -240.755906,661.417322 L -240.755906,657.637795 A 26.834646,26.834646 0.0 0 1 -213.921260,630.803149 L -30.236220,630.803149 A 26.834646,26.834646 0.0 0 1 -3.820729,652.913385 L -121.700787,652.913385 L -121.700787,666.141732 L -3.820729,666.141732 A 26.834646,26.834646 0.0 0 1 -30.236220,688.251968 L -213.921260,688.251968 z"
       style="fill:none;stroke:#000000;stroke-width:0.07559055;stroke-miterlimit:4;stroke-dasharray:none"
       id="path1187" />
    <path
       d="M 28.535433,661.795275 L 20.787401,661.795275 L 20.787401,621.732283 A 13.606299,13.606299 0.0 0 1 34.393701,608.125984 L 35.905512,608.125984 A 13.606299,13.606299 0.0 0 1 49.511811,621.732283 L 49.511811,661.795275 L 41.763779,661.795275 L 41.763779,635.338582 L 28.535433,635.338582 L 28.535433,661.795275 z"
       style="fill:none;stroke:#000000;stroke-width:0.07559055;stroke-miterlimit:4;stroke-dasharray:none"
       id="path1189" />
    <path
       d="M -120.566929,593.007874 L -120.566929,588.283465 L -148.535433,588.283465 L -148.535433,575.055118 L -120.566929,575.055118 L -120.566929,570.330709 A 26.834646,26.834646 0.0 0 0 -147.401575,543.496063 L -207.874016,543.496063 A 26.834646,26.834646 0.0 0 0 -234.708661,570.330709 L -234.708661,593.007874 A 26.834646,26.834646 0.0 0 0 -207.874016,619.842520 L -147.401575,619.842520 A 26.834646,26.834646 0.0 0 0 -120.566929,593.007874 z"
       style="fill:none;stroke:#000000;stroke-width:0.07559055;stroke-miterlimit:4;stroke-dasharray:none"
       id="path1191" />
  </g>
  <desc
     id="desc1195">APINN_ready.dxf - scale = 1.000000, origin = (0.000000, 0.000000), method = manual</desc>
</svg>
