999
"DXF R12 Output" (www.mydxf.blogspot.com)
 0 
SECTION
 2 
HEADER
 9 
$ACADVER
 1 
AC1009
 9 
$EXTMIN
 10 
 0 
 20 
 0 
 9 
$EXTMAX
 10 
 8.5 
 20 
 11 
 0 
ENDSEC
 0 
SECTION
 2 
ENTITIES
0
LINE
8
Layer 1
10
0.846666
20
317.647000
11
-0.846666
21
315.953000
0
LINE
8
Layer 1
10
0.000000
20
318.211000
11
0.000000
21
315.389000
0
LINE
8
Layer 1
10
2.257780
20
315.671000
11
1.128890
21
314.542110
0
LINE
8
Layer 1
10
1.693330
20
316.236000
11
0.564440
21
315.107110
0
LINE
8
Layer 1
10
1.128890
20
316.800000
11
0.000000
21
315.671110
0
LINE
8
0
10
45.866600
20
124.800000
11
50.133300
21
124.800000
0
LINE
8
0
10
50.133300
20
124.800000
11
50.133300
21
53.333500
0
LINE
8
0
10
50.133300
20
53.333500
11
52.266600
21
53.333500
0
LINE
8
0
10
52.266600
20
53.333500
11
52.266600
21
57.600200
0
LINE
8
0
10
52.266600
20
57.600200
11
53.333300
21
57.600200
0
LINE
8
0
10
53.333300
20
57.600200
11
54.969207
21
57.682806
0
LINE
8
0
10
54.969207
20
57.682806
11
56.557858
21
57.925263
0
LINE
8
0
10
56.557858
20
57.925263
11
58.091211
21
58.319528
0
LINE
8
0
10
58.091211
20
58.319528
11
59.561222
21
58.857559
0
LINE
8
0
10
59.561222
20
58.857559
11
60.959850
21
59.531314
0
LINE
8
0
10
60.959850
20
59.531314
11
62.279052
21
60.332749
0
LINE
8
0
10
62.279052
20
60.332749
11
64.647008
21
62.286492
0
LINE
8
0
10
64.647008
20
62.286492
11
66.600751
21
64.654448
0
LINE
8
0
10
66.600751
20
64.654448
11
67.402186
21
65.973650
0
LINE
8
0
10
67.402186
20
65.973650
11
68.075941
21
67.372278
0
LINE
8
0
10
68.075941
20
67.372278
11
68.613972
21
68.842289
0
LINE
8
0
10
68.613972
20
68.842289
11
69.008237
21
70.375642
0
LINE
8
0
10
69.008237
20
70.375642
11
69.250694
21
71.964293
0
LINE
8
0
10
69.250694
20
71.964293
11
69.333300
21
73.600200
0
LINE
8
0
10
69.333300
20
73.600200
11
69.333300
21
130.313000
0
LINE
8
0
10
69.333300
20
130.313000
11
69.466865
21
131.056298
0
LINE
8
0
10
69.466865
20
131.056298
11
69.837441
21
131.689762
0
LINE
8
0
10
69.837441
20
131.689762
11
70.400396
21
132.160594
0
LINE
8
0
10
70.400396
20
132.160594
11
71.111100
21
132.416000
0
LINE
8
0
10
71.111100
20
132.416000
11
72.966474
21
132.903498
0
LINE
8
0
10
72.966474
20
132.903498
11
74.665000
21
133.693343
0
LINE
8
0
10
74.665000
20
133.693343
11
76.178779
21
134.752521
0
LINE
8
0
10
76.178779
20
134.752521
11
77.479907
21
136.048022
0
LINE
8
0
10
77.479907
20
136.048022
11
78.540485
21
137.546832
0
LINE
8
0
10
78.540485
20
137.546832
11
79.332611
21
139.215940
0
LINE
8
0
10
79.332611
20
139.215940
11
79.828383
21
141.022333
0
LINE
8
0
10
79.828383
20
141.022333
11
79.999900
21
142.933000
0
LINE
8
0
10
79.999900
20
142.933000
11
79.999900
21
169.600000
0
LINE
8
0
10
79.999900
20
169.600000
11
79.869448
21
172.235693
0
LINE
8
0
10
79.869448
20
172.235693
11
79.482843
21
174.826747
0
LINE
8
0
10
79.482843
20
174.826747
11
78.847326
21
177.355674
0
LINE
8
0
10
78.847326
20
177.355674
11
77.970141
21
179.804989
0
LINE
8
0
10
77.970141
20
179.804989
11
76.858530
21
182.157204
0
LINE
8
0
10
76.858530
20
182.157204
11
75.519737
21
184.394835
0
LINE
8
0
10
75.519737
20
184.394835
11
73.961004
21
186.500393
0
LINE
8
0
10
73.961004
20
186.500393
11
72.189575
21
188.456392
0
LINE
8
0
10
72.189575
20
188.456392
11
70.233602
21
190.227851
0
LINE
8
0
10
70.233602
20
190.227851
11
68.128067
21
191.786615
0
LINE
8
0
10
68.128067
20
191.786615
11
65.890457
21
193.125442
0
LINE
8
0
10
65.890457
20
193.125442
11
63.538258
21
194.237088
0
LINE
8
0
10
63.538258
20
194.237088
11
61.088957
21
195.114310
0
LINE
8
0
10
61.088957
20
195.114310
11
58.560039
21
195.749864
0
LINE
8
0
10
58.560039
20
195.749864
11
55.968991
21
196.136509
0
LINE
8
0
10
55.968991
20
196.136509
11
53.333300
21
196.267000
0
LINE
8
0
10
53.333300
20
196.267000
11
42.666600
21
196.267000
0
LINE
8
0
10
42.666600
20
196.267000
11
40.030909
21
196.136509
0
LINE
8
0
10
40.030909
20
196.136509
11
37.439861
21
195.749864
0
LINE
8
0
10
37.439861
20
195.749864
11
34.910943
21
195.114310
0
LINE
8
0
10
34.910943
20
195.114310
11
32.461642
21
194.237088
0
LINE
8
0
10
32.461642
20
194.237088
11
30.109443
21
193.125442
0
LINE
8
0
10
30.109443
20
193.125442
11
27.871833
21
191.786615
0
LINE
8
0
10
27.871833
20
191.786615
11
25.766298
21
190.227851
0
LINE
8
0
10
25.766298
20
190.227851
11
23.810325
21
188.456392
0
LINE
8
0
10
23.810325
20
188.456392
11
22.038896
21
186.500393
0
LINE
8
0
10
22.038896
20
186.500393
11
20.480163
21
184.394835
0
LINE
8
0
10
20.480163
20
184.394835
11
19.141370
21
182.157205
0
LINE
8
0
10
19.141370
20
182.157205
11
18.029759
21
179.804989
0
LINE
8
0
10
18.029759
20
179.804989
11
17.152574
21
177.355674
0
LINE
8
0
10
17.152574
20
177.355674
11
16.517057
21
174.826747
0
LINE
8
0
10
16.517057
20
174.826747
11
16.130452
21
172.235693
0
LINE
8
0
10
16.130452
20
172.235693
11
16.000000
21
169.600000
0
LINE
8
0
10
16.000000
20
169.600000
11
16.000000
21
142.933000
0
LINE
8
0
10
16.000000
20
142.933000
11
16.171522
21
141.022322
0
LINE
8
0
10
16.171522
20
141.022322
11
16.667303
21
139.215920
0
LINE
8
0
10
16.667303
20
139.215920
11
17.459440
21
137.546806
0
LINE
8
0
10
17.459440
20
137.546806
11
18.520031
21
136.047993
0
LINE
8
0
10
18.520031
20
136.047993
11
19.821175
21
134.752494
0
LINE
8
0
10
19.821175
20
134.752494
11
21.334969
21
133.693320
0
LINE
8
0
10
21.334969
20
133.693320
11
23.033511
21
132.903485
0
LINE
8
0
10
23.033511
20
132.903485
11
24.888900
21
132.416000
0
LINE
8
0
10
24.888900
20
132.416000
11
25.599572
21
132.160571
0
LINE
8
0
10
25.599572
20
132.160571
11
26.162498
21
131.689733
0
LINE
8
0
10
26.162498
20
131.689733
11
26.533049
21
131.056279
0
LINE
8
0
10
26.533049
20
131.056279
11
26.666600
21
130.313000
0
LINE
8
0
10
26.666600
20
130.313000
11
26.666600
21
73.600200
0
LINE
8
0
10
26.666600
20
73.600200
11
26.744893
21
72.018797
0
LINE
8
0
10
26.744893
20
72.018797
11
26.976876
21
70.464179
0
LINE
8
0
10
26.976876
20
70.464179
11
27.358203
21
68.946838
0
LINE
8
0
10
27.358203
20
68.946838
11
27.884527
21
67.477265
0
LINE
8
0
10
27.884527
20
67.477265
11
28.551504
21
66.065953
0
LINE
8
0
10
28.551504
20
66.065953
11
29.354788
21
64.723392
0
LINE
8
0
10
29.354788
20
64.723392
11
30.290032
21
63.460074
0
LINE
8
0
10
30.290032
20
63.460074
11
31.352892
21
62.286492
0
LINE
8
0
10
31.352892
20
62.286492
11
32.526474
21
61.223632
0
LINE
8
0
10
32.526474
20
61.223632
11
33.789792
21
60.288388
0
LINE
8
0
10
33.789792
20
60.288388
11
35.132353
21
59.485104
0
LINE
8
0
10
35.132353
20
59.485104
11
36.543665
21
58.818127
0
LINE
8
0
10
36.543665
20
58.818127
11
38.013238
21
58.291803
0
LINE
8
0
10
38.013238
20
58.291803
11
39.530579
21
57.910476
0
LINE
8
0
10
39.530579
20
57.910476
11
41.085197
21
57.678493
0
LINE
8
0
10
41.085197
20
57.678493
11
42.666600
21
57.600200
0
LINE
8
0
10
42.666600
20
57.600200
11
43.733300
21
57.600200
0
LINE
8
0
10
43.733300
20
57.600200
11
43.733300
21
53.333500
0
LINE
8
0
10
43.733300
20
53.333500
11
45.866600
21
53.333500
0
LINE
8
0
10
45.866600
20
53.333500
11
45.866600
21
124.800000
0
LINE
8
0
10
45.866600
20
124.800000
11
45.866600
21
124.800000
0
LINE
8
0
10
-20.655900
20
125.333000
11
-15.322600
21
125.333000
0
LINE
8
0
10
-15.322600
20
125.333000
11
-15.322600
21
114.667000
0
LINE
8
0
10
-15.322600
20
114.667000
11
-20.655900
21
114.667000
0
LINE
8
0
10
-20.655900
20
114.667000
11
-19.856886
21
112.201215
0
LINE
8
0
10
-19.856886
20
112.201215
11
-18.778048
21
109.875512
0
LINE
8
0
10
-18.778048
20
109.875512
11
-17.437921
21
107.710480
0
LINE
8
0
10
-17.437921
20
107.710480
11
-15.855039
21
105.726708
0
LINE
8
0
10
-15.855039
20
105.726708
11
-14.047937
21
103.944786
0
LINE
8
0
10
-14.047937
20
103.944786
11
-12.035150
21
102.385301
0
LINE
8
0
10
-12.035150
20
102.385301
11
-9.835213
21
101.068843
0
LINE
8
0
10
-9.835213
20
101.068843
11
-7.466660
21
100.016000
0
LINE
8
0
10
-7.466660
20
100.016000
11
-7.466660
21
96.000200
0
LINE
8
0
10
-7.466660
20
96.000200
11
-5.333330
21
96.000200
0
LINE
8
0
10
-5.333330
20
96.000200
11
-5.333330
21
100.267000
0
LINE
8
0
10
-5.333330
20
100.267000
11
-2.133330
21
100.267000
0
LINE
8
0
10
-2.133330
20
100.267000
11
-2.133330
21
120.800000
0
LINE
8
0
10
-2.133330
20
120.800000
11
2.133330
21
120.800000
0
LINE
8
0
10
2.133330
20
120.800000
11
2.133330
21
100.267000
0
LINE
8
0
10
2.133330
20
100.267000
11
5.333330
21
100.267000
0
LINE
8
0
10
5.333330
20
100.267000
11
5.333330
21
96.000200
0
LINE
8
0
10
5.333330
20
96.000200
11
7.466660
21
96.000200
0
LINE
8
0
10
7.466660
20
96.000200
11
7.466660
21
100.016000
0
LINE
8
0
10
7.466660
20
100.016000
11
9.199012
21
100.751098
0
LINE
8
0
10
9.199012
20
100.751098
11
10.837395
21
101.622274
0
LINE
8
0
10
10.837395
20
101.622274
11
12.376761
21
102.620901
0
LINE
8
0
10
12.376761
20
102.620901
11
13.812059
21
103.738351
0
LINE
8
0
10
13.812059
20
103.738351
11
15.138241
21
104.965998
0
LINE
8
0
10
15.138241
20
104.965998
11
16.350256
21
106.295213
0
LINE
8
0
10
16.350256
20
106.295213
11
17.443055
21
107.717370
0
LINE
8
0
10
17.443055
20
107.717370
11
18.411589
21
109.223841
0
LINE
8
0
10
18.411589
20
109.223841
11
19.250809
21
110.806000
0
LINE
8
0
10
19.250809
20
110.806000
11
19.955664
21
112.455218
0
LINE
8
0
10
19.955664
20
112.455218
11
20.521105
21
114.162868
0
LINE
8
0
10
20.521105
20
114.162868
11
20.942083
21
115.920324
0
LINE
8
0
10
20.942083
20
115.920324
11
21.213548
21
117.718958
0
LINE
8
0
10
21.213548
20
117.718958
11
21.330451
21
119.550142
0
LINE
8
0
10
21.330451
20
119.550142
11
21.287743
21
121.405250
0
LINE
8
0
10
21.287743
20
121.405250
11
21.080373
21
123.275653
0
LINE
8
0
10
21.080373
20
123.275653
11
20.710385
21
125.120788
0
LINE
8
0
10
20.710385
20
125.120788
11
20.188142
21
126.901380
0
LINE
8
0
10
20.188142
20
126.901380
11
19.521073
21
128.610743
0
LINE
8
0
10
19.521073
20
128.610743
11
18.716608
21
130.242188
0
LINE
8
0
10
18.716608
20
130.242188
11
17.782176
21
131.789026
0
LINE
8
0
10
17.782176
20
131.789026
11
16.725205
21
133.244570
0
LINE
8
0
10
16.725205
20
133.244570
11
15.553127
21
134.602132
0
LINE
8
0
10
15.553127
20
134.602132
11
14.273369
21
135.855022
0
LINE
8
0
10
14.273369
20
135.855022
11
12.893362
21
136.996553
0
LINE
8
0
10
12.893362
20
136.996553
11
11.420534
21
138.020038
0
LINE
8
0
10
11.420534
20
138.020038
11
9.862315
21
138.918786
0
LINE
8
0
10
9.862315
20
138.918786
11
8.226135
21
139.686111
0
LINE
8
0
10
8.226135
20
139.686111
11
6.519423
21
140.315324
0
LINE
8
0
10
6.519423
20
140.315324
11
4.749608
21
140.799737
0
LINE
8
0
10
4.749608
20
140.799737
11
2.924119
21
141.132662
0
LINE
8
0
10
2.924119
20
141.132662
11
1.050386
21
141.307411
0
LINE
8
0
10
1.050386
20
141.307411
11
-0.831449
21
141.317789
0
LINE
8
0
10
-0.831449
20
141.317789
11
-2.680831
21
141.166013
0
LINE
8
0
10
-2.680831
20
141.166013
11
-4.489707
21
140.858008
0
LINE
8
0
10
-4.489707
20
140.858008
11
-6.250028
21
140.399699
0
LINE
8
0
10
-6.250028
20
140.399699
11
-7.953742
21
139.797010
0
LINE
8
0
10
-7.953742
20
139.797010
11
-9.592797
21
139.055868
0
LINE
8
0
10
-9.592797
20
139.055868
11
-11.159143
21
138.182197
0
LINE
8
0
10
-11.159143
20
138.182197
11
-12.644729
21
137.181922
0
LINE
8
0
10
-12.644729
20
137.181922
11
-14.041502
21
136.060968
0
LINE
8
0
10
-14.041502
20
136.060968
11
-15.341414
21
134.825261
0
LINE
8
0
10
-15.341414
20
134.825261
11
-16.536411
21
133.480726
0
LINE
8
0
10
-16.536411
20
133.480726
11
-17.618443
21
132.033287
0
LINE
8
0
10
-17.618443
20
132.033287
11
-18.579459
21
130.488870
0
LINE
8
0
10
-18.579459
20
130.488870
11
-19.411408
21
128.853400
0
LINE
8
0
10
-19.411408
20
128.853400
11
-20.106239
21
127.132801
0
LINE
8
0
10
-20.106239
20
127.132801
11
-20.655900
21
125.333000
0
LINE
8
0
10
-20.655900
20
125.333000
11
-20.655900
21
125.333000
0
LINE
8
0
10
3.758180
20
150.400000
11
10.864600
21
150.400000
0
LINE
8
0
10
10.864600
20
150.400000
11
10.279566
21
151.282882
0
LINE
8
0
10
10.279566
20
151.282882
11
9.486993
21
151.955049
0
LINE
8
0
10
9.486993
20
151.955049
11
8.539951
21
152.382941
0
LINE
8
0
10
8.539951
20
152.382941
11
7.491510
21
152.533000
0
LINE
8
0
10
7.491510
20
152.533000
11
-3.708480
21
152.533000
0
LINE
8
0
10
-3.708480
20
152.533000
11
-3.708480
21
148.267000
0
LINE
8
0
10
-3.708480
20
148.267000
11
-12.241800
21
148.267000
0
LINE
8
0
10
-12.241800
20
148.267000
11
-12.241800
21
152.533000
0
LINE
8
0
10
-12.241800
20
152.533000
11
-14.375100
21
152.533000
0
LINE
8
0
10
-14.375100
20
152.533000
11
-14.375100
21
144.000000
0
LINE
8
0
10
-14.375100
20
144.000000
11
7.491510
21
144.000000
0
LINE
8
0
10
7.491510
20
144.000000
11
8.539951
21
144.150059
0
LINE
8
0
10
8.539951
20
144.150059
11
9.486993
21
144.577951
0
LINE
8
0
10
9.486993
20
144.577951
11
10.279566
21
145.250118
0
LINE
8
0
10
10.279566
20
145.250118
11
10.864600
21
146.133000
0
LINE
8
0
10
10.864600
20
146.133000
11
3.758180
21
146.133000
0
LINE
8
0
10
3.758180
20
146.133000
11
3.758180
21
150.400000
0
LINE
8
0
10
3.758180
20
150.400000
11
3.758180
21
150.400000
0
LINE
8
0
10
11.733300
20
190.933000
11
11.733300
21
183.467000
0
LINE
8
0
10
11.733300
20
183.467000
11
13.866700
21
183.467000
0
LINE
8
0
10
13.866700
20
183.467000
11
13.866700
21
194.667000
0
LINE
8
0
10
13.866700
20
194.667000
11
13.790793
21
195.419354
0
LINE
8
0
10
13.790793
20
195.419354
11
13.573214
21
196.120092
0
LINE
8
0
10
13.573214
20
196.120092
11
12.773092
21
197.306674
0
LINE
8
0
10
12.773092
20
197.306674
11
11.586423
21
198.106670
0
LINE
8
0
10
11.586423
20
198.106670
11
10.885663
21
198.324173
0
LINE
8
0
10
10.885663
20
198.324173
11
10.133300
21
198.400000
0
LINE
8
0
10
10.133300
20
198.400000
11
9.066660
21
198.400000
0
LINE
8
0
10
9.066660
20
198.400000
11
8.314308
21
198.324161
0
LINE
8
0
10
8.314308
20
198.324161
11
7.613559
21
198.106650
0
LINE
8
0
10
7.613559
20
198.106650
11
6.426914
21
197.306650
0
LINE
8
0
10
6.426914
20
197.306650
11
5.626809
21
196.120075
0
LINE
8
0
10
5.626809
20
196.120075
11
5.409236
21
195.419345
0
LINE
8
0
10
5.409236
20
195.419345
11
5.333330
21
194.667000
0
LINE
8
0
10
5.333330
20
194.667000
11
5.333330
21
183.467000
0
LINE
8
0
10
5.333330
20
183.467000
11
7.466660
21
183.467000
0
LINE
8
0
10
7.466660
20
183.467000
11
7.466660
21
190.933000
0
LINE
8
0
10
7.466660
20
190.933000
11
11.733300
21
190.933000
0
LINE
8
0
10
11.733300
20
190.933000
11
11.733300
21
190.933000
0
LINE
8
0
10
-67.199900
20
184.533000
11
-67.199900
21
183.467000
0
LINE
8
0
10
-67.199900
20
183.467000
11
-67.055164
21
182.003483
0
LINE
8
0
10
-67.055164
20
182.003483
11
-66.631638
21
180.609542
0
LINE
8
0
10
-66.631638
20
180.609542
11
-65.945544
21
179.324349
0
LINE
8
0
10
-65.945544
20
179.324349
11
-65.013107
21
178.187076
0
LINE
8
0
10
-65.013107
20
178.187076
11
-63.875884
21
177.254578
0
LINE
8
0
10
-63.875884
20
177.254578
11
-62.590727
21
176.568415
0
LINE
8
0
10
-62.590727
20
176.568415
11
-61.196809
21
176.144814
0
LINE
8
0
10
-61.196809
20
176.144814
11
-59.733300
21
176.000000
0
LINE
8
0
10
-59.733300
20
176.000000
11
-8.533330
21
176.000000
0
LINE
8
0
10
-8.533330
20
176.000000
11
-7.243792
21
176.111594
0
LINE
8
0
10
-7.243792
20
176.111594
11
-6.019792
21
176.434972
0
LINE
8
0
10
-6.019792
20
176.434972
11
-4.882543
21
176.953068
0
LINE
8
0
10
-4.882543
20
176.953068
11
-3.853262
21
177.648816
0
LINE
8
0
10
-3.853262
20
177.648816
11
-2.953163
21
178.505150
0
LINE
8
0
10
-2.953163
20
178.505150
11
-2.203461
21
179.505003
0
LINE
8
0
10
-2.203461
20
179.505003
11
-1.625372
21
180.631308
0
LINE
8
0
10
-1.625372
20
180.631308
11
-1.240110
21
181.867000
0
LINE
8
0
10
-1.240110
20
181.867000
11
-34.133300
21
181.867000
0
LINE
8
0
10
-34.133300
20
181.867000
11
-34.133300
21
186.133000
0
LINE
8
0
10
-34.133300
20
186.133000
11
-1.240110
21
186.133000
0
LINE
8
0
10
-1.240110
20
186.133000
11
-1.625372
21
187.368692
0
LINE
8
0
10
-1.625372
20
187.368692
11
-2.203461
21
188.494997
0
LINE
8
0
10
-2.203461
20
188.494997
11
-2.953163
21
189.494850
0
LINE
8
0
10
-2.953163
20
189.494850
11
-3.853262
21
190.351184
0
LINE
8
0
10
-3.853262
20
190.351184
11
-4.882543
21
191.046932
0
LINE
8
0
10
-4.882543
20
191.046932
11
-6.019792
21
191.565028
0
LINE
8
0
10
-6.019792
20
191.565028
11
-7.243792
21
191.888406
0
LINE
8
0
10
-7.243792
20
191.888406
11
-8.533330
21
192.000000
0
LINE
8
0
10
-8.533330
20
192.000000
11
-59.733300
21
192.000000
0
LINE
8
0
10
-59.733300
20
192.000000
11
-61.196809
21
191.855186
0
LINE
8
0
10
-61.196809
20
191.855186
11
-62.590727
21
191.431585
0
LINE
8
0
10
-62.590727
20
191.431585
11
-63.875884
21
190.745422
0
LINE
8
0
10
-63.875884
20
190.745422
11
-65.013107
21
189.812924
0
LINE
8
0
10
-65.013107
20
189.812924
11
-65.945544
21
188.675651
0
LINE
8
0
10
-65.945544
20
188.675651
11
-66.631638
21
187.390458
0
LINE
8
0
10
-66.631638
20
187.390458
11
-67.055164
21
185.996517
0
LINE
8
0
10
-67.055164
20
185.996517
11
-67.199900
21
184.533000
0
LINE
8
0
10
-67.199900
20
184.533000
11
-67.199900
21
184.533000
0
LINE
8
0
10
-66.133300
20
163.200000
11
-66.133300
21
162.133000
0
LINE
8
0
10
-66.133300
20
162.133000
11
-65.981488
21
160.628305
0
LINE
8
0
10
-65.981488
20
160.628305
11
-65.546339
21
159.226841
0
LINE
8
0
10
-65.546339
20
159.226841
11
-64.857875
21
157.958629
0
LINE
8
0
10
-64.857875
20
157.958629
11
-63.946118
21
156.853687
0
LINE
8
0
10
-63.946118
20
156.853687
11
-62.841091
21
155.942034
0
LINE
8
0
10
-62.841091
20
155.942034
11
-61.572814
21
155.253689
0
LINE
8
0
10
-61.572814
20
155.253689
11
-60.171310
21
154.818671
0
LINE
8
0
10
-60.171310
20
154.818671
11
-58.666600
21
154.667000
0
LINE
8
0
10
-58.666600
20
154.667000
11
-7.466660
21
154.667000
0
LINE
8
0
10
-7.466660
20
154.667000
11
-6.177226
21
154.778538
0
LINE
8
0
10
-6.177226
20
154.778538
11
-4.953307
21
155.101829
0
LINE
8
0
10
-4.953307
20
155.101829
11
-3.816114
21
155.619812
0
LINE
8
0
10
-3.816114
20
155.619812
11
-2.786858
21
156.315428
0
LINE
8
0
10
-2.786858
20
156.315428
11
-1.886752
21
157.171615
0
LINE
8
0
10
-1.886752
20
157.171615
11
-1.137007
21
158.171313
0
LINE
8
0
10
-1.137007
20
158.171313
11
-0.558833
21
159.297461
0
LINE
8
0
10
-0.558833
20
159.297461
11
-0.173443
21
160.533000
0
LINE
8
0
10
-0.173443
20
160.533000
11
-33.066600
21
160.533000
0
LINE
8
0
10
-33.066600
20
160.533000
11
-33.066600
21
164.800000
0
LINE
8
0
10
-33.066600
20
164.800000
11
-0.173443
21
164.800000
0
LINE
8
0
10
-0.173443
20
164.800000
11
-0.558705
21
166.035691
0
LINE
8
0
10
-0.558705
20
166.035691
11
-1.136794
21
167.161997
0
LINE
8
0
10
-1.136794
20
167.161997
11
-1.886495
21
168.161849
0
LINE
8
0
10
-1.886495
20
168.161849
11
-2.786594
21
169.018183
0
LINE
8
0
10
-2.786594
20
169.018183
11
-3.815874
21
169.713931
0
LINE
8
0
10
-3.815874
20
169.713931
11
-4.953122
21
170.232027
0
LINE
8
0
10
-4.953122
20
170.232027
11
-6.177123
21
170.555406
0
LINE
8
0
10
-6.177123
20
170.555406
11
-7.466660
21
170.667000
0
LINE
8
0
10
-7.466660
20
170.667000
11
-58.666600
21
170.667000
0
LINE
8
0
10
-58.666600
20
170.667000
11
-60.130123
21
170.522203
0
LINE
8
0
10
-60.130123
20
170.522203
11
-61.524058
21
170.098613
0
LINE
8
0
10
-61.524058
20
170.098613
11
-62.809231
21
169.412457
0
LINE
8
0
10
-62.809231
20
169.412457
11
-63.946472
21
168.479960
0
LINE
8
0
10
-63.946472
20
168.479960
11
-64.878923
21
167.342682
0
LINE
8
0
10
-64.878923
20
167.342682
11
-65.565028
21
166.057481
0
LINE
8
0
10
-65.565028
20
166.057481
11
-65.988562
21
164.663529
0
LINE
8
0
10
-65.988562
20
164.663529
11
-66.133300
21
163.200000
0
LINE
8
0
10
-66.133300
20
163.200000
11
-66.133300
21
163.200000
0
LINE
8
0
10
-22.259800
20
212.929000
11
-25.276800
21
209.912000
0
LINE
8
0
10
-25.276800
20
209.912000
11
-26.596800
21
211.232000
0
LINE
8
0
10
-26.596800
20
211.232000
11
-27.270636
21
209.499122
0
LINE
8
0
10
-27.270636
20
209.499122
11
-27.495248
21
207.681000
0
LINE
8
0
10
-27.495248
20
207.681000
11
-27.270636
21
205.862878
0
LINE
8
0
10
-27.270636
20
205.862878
11
-26.596800
21
204.130000
0
LINE
8
0
10
-26.596800
20
204.130000
11
-25.276800
21
205.449000
0
LINE
8
0
10
-25.276800
20
205.449000
11
-22.259800
21
202.432000
0
LINE
8
0
10
-22.259800
20
202.432000
11
-23.579800
21
201.113000
0
LINE
8
0
10
-23.579800
20
201.113000
11
-21.846853
21
200.439103
0
LINE
8
0
10
-21.846853
20
200.439103
11
-20.028650
21
200.214471
0
LINE
8
0
10
-20.028650
20
200.214471
11
-18.210447
21
200.439103
0
LINE
8
0
10
-18.210447
20
200.439103
11
-16.477500
21
201.113000
0
LINE
8
0
10
-16.477500
20
201.113000
11
-17.797400
21
202.432000
0
LINE
8
0
10
-17.797400
20
202.432000
11
-14.780400
21
205.449000
0
LINE
8
0
10
-14.780400
20
205.449000
11
-13.460500
21
204.130000
0
LINE
8
0
10
-13.460500
20
204.130000
11
-12.786664
21
205.862878
0
LINE
8
0
10
-12.786664
20
205.862878
11
-12.562052
21
207.681000
0
LINE
8
0
10
-12.562052
20
207.681000
11
-12.786664
21
209.499122
0
LINE
8
0
10
-12.786664
20
209.499122
11
-13.460500
21
211.232000
0
LINE
8
0
10
-13.460500
20
211.232000
11
-14.780400
21
209.912000
0
LINE
8
0
10
-14.780400
20
209.912000
11
-17.797400
21
212.929000
0
LINE
8
0
10
-17.797400
20
212.929000
11
-16.477500
21
214.249000
0
LINE
8
0
10
-16.477500
20
214.249000
11
-18.210447
21
214.922897
0
LINE
8
0
10
-18.210447
20
214.922897
11
-20.028650
21
215.147529
0
LINE
8
0
10
-20.028650
20
215.147529
11
-21.846853
21
214.922897
0
LINE
8
0
10
-21.846853
20
214.922897
11
-23.579800
21
214.249000
0
LINE
8
0
10
-23.579800
20
214.249000
11
-22.259800
21
212.929000
0
LINE
8
0
10
-22.259800
20
212.929000
11
-22.259800
21
212.929000
0
LINE
8
0
10
-17.895300
20
211.947000
11
-22.162000
21
211.947000
0
LINE
8
0
10
-22.162000
20
211.947000
11
-22.162000
21
209.814000
0
LINE
8
0
10
-22.162000
20
209.814000
11
-24.295300
21
209.814000
0
LINE
8
0
10
-24.295300
20
209.814000
11
-24.295300
21
205.547000
0
LINE
8
0
10
-24.295300
20
205.547000
11
-22.162000
21
205.547000
0
LINE
8
0
10
-22.162000
20
205.547000
11
-22.162000
21
203.414000
0
LINE
8
0
10
-22.162000
20
203.414000
11
-17.895300
21
203.414000
0
LINE
8
0
10
-17.895300
20
203.414000
11
-17.895300
21
205.547000
0
LINE
8
0
10
-17.895300
20
205.547000
11
-15.762000
21
205.547000
0
LINE
8
0
10
-15.762000
20
205.547000
11
-15.762000
21
209.814000
0
LINE
8
0
10
-15.762000
20
209.814000
11
-17.895300
21
209.814000
0
LINE
8
0
10
-17.895300
20
209.814000
11
-17.895300
21
211.947000
0
LINE
8
0
10
-17.895300
20
211.947000
11
-17.895300
21
211.947000
0
LINE
8
0
10
-34.133300
20
204.800000
11
-34.133300
21
206.933000
0
LINE
8
0
10
-34.133300
20
206.933000
11
-38.400000
21
206.933000
0
LINE
8
0
10
-38.400000
20
206.933000
11
-38.400000
21
205.867000
0
LINE
8
0
10
-38.400000
20
205.867000
11
-42.666600
21
205.867000
0
LINE
8
0
10
-42.666600
20
205.867000
11
-42.666600
21
210.133000
0
LINE
8
0
10
-42.666600
20
210.133000
11
-38.400000
21
210.133000
0
LINE
8
0
10
-38.400000
20
210.133000
11
-38.400000
21
209.067000
0
LINE
8
0
10
-38.400000
20
209.067000
11
-34.133300
21
209.067000
0
LINE
8
0
10
-34.133300
20
209.067000
11
-34.133300
21
211.200000
0
LINE
8
0
10
-34.133300
20
211.200000
11
-34.278038
21
212.663529
0
LINE
8
0
10
-34.278038
20
212.663529
11
-34.701572
21
214.057481
0
LINE
8
0
10
-34.701572
20
214.057481
11
-35.387677
21
215.342682
0
LINE
8
0
10
-35.387677
20
215.342682
11
-36.320128
21
216.479960
0
LINE
8
0
10
-36.320128
20
216.479960
11
-37.457369
21
217.412457
0
LINE
8
0
10
-37.457369
20
217.412457
11
-38.742542
21
218.098613
0
LINE
8
0
10
-38.742542
20
218.098613
11
-40.136477
21
218.522203
0
LINE
8
0
10
-40.136477
20
218.522203
11
-41.600000
21
218.667000
0
LINE
8
0
10
-41.600000
20
218.667000
11
-58.666600
21
218.667000
0
LINE
8
0
10
-58.666600
20
218.667000
11
-60.130123
21
218.522203
0
LINE
8
0
10
-60.130123
20
218.522203
11
-61.524058
21
218.098613
0
LINE
8
0
10
-61.524058
20
218.098613
11
-62.809231
21
217.412457
0
LINE
8
0
10
-62.809231
20
217.412457
11
-63.946472
21
216.479960
0
LINE
8
0
10
-63.946472
20
216.479960
11
-64.878923
21
215.342682
0
LINE
8
0
10
-64.878923
20
215.342682
11
-65.565028
21
214.057481
0
LINE
8
0
10
-65.565028
20
214.057481
11
-65.988562
21
212.663529
0
LINE
8
0
10
-65.988562
20
212.663529
11
-66.133300
21
211.200000
0
LINE
8
0
10
-66.133300
20
211.200000
11
-66.133300
21
204.800000
0
LINE
8
0
10
-66.133300
20
204.800000
11
-65.988562
21
203.336471
0
LINE
8
0
10
-65.988562
20
203.336471
11
-65.565028
21
201.942519
0
LINE
8
0
10
-65.565028
20
201.942519
11
-64.878923
21
200.657318
0
LINE
8
0
10
-64.878923
20
200.657318
11
-63.946472
21
199.520040
0
LINE
8
0
10
-63.946472
20
199.520040
11
-62.809231
21
198.587543
0
LINE
8
0
10
-62.809231
20
198.587543
11
-61.524058
21
197.901387
0
LINE
8
0
10
-61.524058
20
197.901387
11
-60.130123
21
197.477797
0
LINE
8
0
10
-60.130123
20
197.477797
11
-58.666600
21
197.333000
0
LINE
8
0
10
-58.666600
20
197.333000
11
-41.600000
21
197.333000
0
LINE
8
0
10
-41.600000
20
197.333000
11
-40.136477
21
197.477797
0
LINE
8
0
10
-40.136477
20
197.477797
11
-38.742542
21
197.901387
0
LINE
8
0
10
-38.742542
20
197.901387
11
-37.457369
21
198.587543
0
LINE
8
0
10
-37.457369
20
198.587543
11
-36.320128
21
199.520040
0
LINE
8
0
10
-36.320128
20
199.520040
11
-35.387677
21
200.657318
0
LINE
8
0
10
-35.387677
20
200.657318
11
-34.701572
21
201.942519
0
LINE
8
0
10
-34.701572
20
201.942519
11
-34.278038
21
203.336471
0
LINE
8
0
10
-34.278038
20
203.336471
11
-34.133300
21
204.800000
0
LINE
8
0
10
-34.133300
20
204.800000
11
-34.133300
21
204.800000
0
LINE
8
0
10
-70.711200
20
69.333500
11
-74.666600
21
69.333500
0
LINE
8
0
10
-74.666600
20
69.333500
11
-74.666600
21
68.266900
0
LINE
8
0
10
-74.666600
20
68.266900
11
-78.933300
21
68.266900
0
LINE
8
0
10
-78.933300
20
68.266900
11
-78.933300
21
72.533500
0
LINE
8
0
10
-78.933300
20
72.533500
11
-74.666600
21
72.533500
0
LINE
8
0
10
-74.666600
20
72.533500
11
-74.666600
21
71.466900
0
LINE
8
0
10
-74.666600
20
71.466900
11
-70.399900
21
71.466900
0
LINE
8
0
10
-70.399900
20
71.466900
11
-70.399900
21
200.458000
0
LINE
8
0
10
-70.399900
20
200.458000
11
-70.503360
21
201.503277
0
LINE
8
0
10
-70.503360
20
201.503277
11
-70.805922
21
202.498852
0
LINE
8
0
10
-70.805922
20
202.498852
11
-71.295998
21
203.416750
0
LINE
8
0
10
-71.295998
20
203.416750
11
-71.962000
21
204.229000
0
LINE
8
0
10
-71.962000
20
204.229000
11
-80.205200
21
212.472000
0
LINE
8
0
10
-80.205200
20
212.472000
11
-81.315860
21
213.388022
0
LINE
8
0
10
-81.315860
20
213.388022
11
-82.546139
21
214.057965
0
LINE
8
0
10
-82.546139
20
214.057965
11
-83.859148
21
214.480508
0
LINE
8
0
10
-83.859148
20
214.480508
11
-85.217997
21
214.654330
0
LINE
8
0
10
-85.217997
20
214.654330
11
-86.585796
21
214.578110
0
LINE
8
0
10
-86.585796
20
214.578110
11
-87.925656
21
214.250529
0
LINE
8
0
10
-87.925656
20
214.250529
11
-89.200687
21
213.670266
0
LINE
8
0
10
-89.200687
20
213.670266
11
-90.374000
21
212.836000
0
LINE
8
0
10
-90.374000
20
212.836000
11
-87.370500
21
209.832000
0
LINE
8
0
10
-87.370500
20
209.832000
11
-86.616200
21
210.586000
0
LINE
8
0
10
-86.616200
20
210.586000
11
-83.599300
21
207.569000
0
LINE
8
0
10
-83.599300
20
207.569000
11
-86.616200
21
204.552000
0
LINE
8
0
10
-86.616200
20
204.552000
11
-89.633200
21
207.569000
0
LINE
8
0
10
-89.633200
20
207.569000
11
-88.879000
21
208.324000
0
LINE
8
0
10
-88.879000
20
208.324000
11
-91.882500
21
211.327000
0
LINE
8
0
10
-91.882500
20
211.327000
11
-92.716850
21
210.153705
0
LINE
8
0
10
-92.716850
20
210.153705
11
-93.297190
21
208.878674
0
LINE
8
0
10
-93.297190
20
208.878674
11
-93.624840
21
207.538800
0
LINE
8
0
10
-93.624840
20
207.538800
11
-93.701119
21
206.170974
0
LINE
8
0
10
-93.701119
20
206.170974
11
-93.527345
21
204.812088
0
LINE
8
0
10
-93.527345
20
204.812088
11
-93.104838
21
203.499036
0
LINE
8
0
10
-93.104838
20
203.499036
11
-92.434916
21
202.268709
0
LINE
8
0
10
-92.434916
20
202.268709
11
-91.518900
21
201.158000
0
LINE
8
0
10
-91.518900
20
201.158000
11
-87.962000
21
197.601000
0
LINE
8
0
10
-87.962000
20
197.601000
11
-87.295998
21
196.788750
0
LINE
8
0
10
-87.295998
20
196.788750
11
-86.805922
21
195.870852
0
LINE
8
0
10
-86.805922
20
195.870852
11
-86.503360
21
194.875277
0
LINE
8
0
10
-86.503360
20
194.875277
11
-86.399900
21
193.830000
0
LINE
8
0
10
-86.399900
20
193.830000
11
-86.399900
21
71.466900
0
LINE
8
0
10
-86.399900
20
71.466900
11
-86.248213
21
69.962109
0
LINE
8
0
10
-86.248213
20
69.962109
11
-85.813150
21
68.560541
0
LINE
8
0
10
-85.813150
20
68.560541
11
-85.124738
21
67.292219
0
LINE
8
0
10
-85.124738
20
67.292219
11
-84.213001
21
66.187169
0
LINE
8
0
10
-84.213001
20
66.187169
11
-83.107964
21
65.275418
0
LINE
8
0
10
-83.107964
20
65.275418
11
-81.839651
21
64.586988
0
LINE
8
0
10
-81.839651
20
64.586988
11
-80.438089
21
64.151908
0
LINE
8
0
10
-80.438089
20
64.151908
11
-78.933300
21
64.000200
0
LINE
8
0
10
-78.933300
20
64.000200
11
-77.866600
21
64.000200
0
LINE
8
0
10
-77.866600
20
64.000200
11
-76.649792
21
64.099576
0
LINE
8
0
10
-76.649792
20
64.099576
11
-75.488195
21
64.388537
0
LINE
8
0
10
-75.488195
20
64.388537
11
-74.400258
21
64.853330
0
LINE
8
0
10
-74.400258
20
64.853330
11
-73.404431
21
65.480205
0
LINE
8
0
10
-73.404431
20
65.480205
11
-72.519162
21
66.255411
0
LINE
8
0
10
-72.519162
20
66.255411
11
-71.762901
21
67.165196
0
LINE
8
0
10
-71.762901
20
67.165196
11
-71.154097
21
68.195810
0
LINE
8
0
10
-71.154097
20
68.195810
11
-70.711200
21
69.333500
0
LINE
8
0
10
-70.711200
20
69.333500
11
-70.711200
21
69.333500
0
LINE
8
0
10
-85.547700
20
65.508700
11
-84.631712
21
64.398014
0
LINE
8
0
10
-84.631712
20
64.398014
11
-83.961808
21
63.167716
0
LINE
8
0
10
-83.961808
20
63.167716
11
-83.539305
21
61.854697
0
LINE
8
0
10
-83.539305
20
61.854697
11
-83.365523
21
60.495844
0
LINE
8
0
10
-83.365523
20
60.495844
11
-83.441783
21
59.128049
0
LINE
8
0
10
-83.441783
20
59.128049
11
-83.769402
21
57.788200
0
LINE
8
0
10
-83.769402
20
57.788200
11
-84.349702
21
56.513187
0
LINE
8
0
10
-84.349702
20
56.513187
11
-85.184000
21
55.339900
0
LINE
8
0
10
-85.184000
20
55.339900
11
-88.187500
21
58.343400
0
LINE
8
0
10
-88.187500
20
58.343400
11
-87.433300
21
59.097600
0
LINE
8
0
10
-87.433300
20
59.097600
11
-90.450300
21
62.114600
0
LINE
8
0
10
-90.450300
20
62.114600
11
-93.467300
21
59.097600
0
LINE
8
0
10
-93.467300
20
59.097600
11
-90.450300
21
56.080600
0
LINE
8
0
10
-90.450300
20
56.080600
11
-89.696000
21
56.834900
0
LINE
8
0
10
-89.696000
20
56.834900
11
-86.692500
21
53.831400
0
LINE
8
0
10
-86.692500
20
53.831400
11
-87.865787
21
52.997070
0
LINE
8
0
10
-87.865787
20
52.997070
11
-89.140806
21
52.416745
0
LINE
8
0
10
-89.140806
20
52.416745
11
-90.480665
21
52.089103
0
LINE
8
0
10
-90.480665
20
52.089103
11
-91.848475
21
52.012828
0
LINE
8
0
10
-91.848475
20
52.012828
11
-93.207345
21
52.186599
0
LINE
8
0
10
-93.207345
20
52.186599
11
-94.520383
21
52.609097
0
LINE
8
0
10
-94.520383
20
52.609097
11
-95.750698
21
53.279004
0
LINE
8
0
10
-95.750698
20
53.279004
11
-96.861400
21
54.195000
0
LINE
8
0
10
-96.861400
20
54.195000
11
-105.104000
21
62.438100
0
LINE
8
0
10
-105.104000
20
62.438100
11
-105.770277
21
63.250312
0
LINE
8
0
10
-105.770277
20
63.250312
11
-106.260600
21
64.168237
0
LINE
8
0
10
-106.260600
20
64.168237
11
-106.563374
21
65.163894
0
LINE
8
0
10
-106.563374
20
65.163894
11
-106.667000
21
66.209300
0
LINE
8
0
10
-106.667000
20
66.209300
11
-106.667000
21
195.200000
0
LINE
8
0
10
-106.667000
20
195.200000
11
-106.522252
21
196.663579
0
LINE
8
0
10
-106.522252
20
196.663579
11
-106.098690
21
198.057573
0
LINE
8
0
10
-106.098690
20
198.057573
11
-105.412541
21
199.342806
0
LINE
8
0
10
-105.412541
20
199.342806
11
-104.480031
21
200.480101
0
LINE
8
0
10
-104.480031
20
200.480101
11
-103.342723
21
201.412596
0
LINE
8
0
10
-103.342723
20
201.412596
11
-102.057481
21
202.098728
0
LINE
8
0
10
-102.057481
20
202.098728
11
-100.663481
21
202.522271
0
LINE
8
0
10
-100.663481
20
202.522271
11
-99.199900
21
202.667000
0
LINE
8
0
10
-99.199900
20
202.667000
11
-98.133300
21
202.667000
0
LINE
8
0
10
-98.133300
20
202.667000
11
-96.669777
21
202.522203
0
LINE
8
0
10
-96.669777
20
202.522203
11
-95.275842
21
202.098613
0
LINE
8
0
10
-95.275842
20
202.098613
11
-93.990669
21
201.412457
0
LINE
8
0
10
-93.990669
20
201.412457
11
-92.853428
21
200.479960
0
LINE
8
0
10
-92.853428
20
200.479960
11
-91.920977
21
199.342682
0
LINE
8
0
10
-91.920977
20
199.342682
11
-91.234872
21
198.057481
0
LINE
8
0
10
-91.234872
20
198.057481
11
-90.811338
21
196.663529
0
LINE
8
0
10
-90.811338
20
196.663529
11
-90.666600
21
195.200000
0
LINE
8
0
10
-90.666600
20
195.200000
11
-90.666600
21
72.836700
0
LINE
8
0
10
-90.666600
20
72.836700
11
-90.563169
21
71.791369
0
LINE
8
0
10
-90.563169
20
71.791369
11
-90.260616
21
70.795741
0
LINE
8
0
10
-90.260616
20
70.795741
11
-89.770530
21
69.877792
0
LINE
8
0
10
-89.770530
20
69.877792
11
-89.104500
21
69.065500
0
LINE
8
0
10
-89.104500
20
69.065500
11
-85.547700
21
65.508700
0
LINE
8
0
10
-85.547700
20
65.508700
11
-85.547700
21
65.508700
0
LINE
8
0
10
-50.133300
20
48.000200
11
-50.133300
21
52.266900
0
LINE
8
0
10
-50.133300
20
52.266900
11
-45.866600
21
52.266900
0
LINE
8
0
10
-45.866600
20
52.266900
11
-45.866600
21
48.000200
0
LINE
8
0
10
-45.866600
20
48.000200
11
-26.133300
21
48.000200
0
LINE
8
0
10
-26.133300
20
48.000200
11
-25.192494
21
48.093283
0
LINE
8
0
10
-25.192494
20
48.093283
11
-24.296420
21
48.365578
0
LINE
8
0
10
-24.296420
20
48.365578
11
-23.470258
21
48.806656
0
LINE
8
0
10
-23.470258
20
48.806656
11
-22.739187
21
49.406087
0
LINE
8
0
10
-22.739187
20
49.406087
11
-22.139756
21
50.137158
0
LINE
8
0
10
-22.139756
20
50.137158
11
-21.698678
21
50.963320
0
LINE
8
0
10
-21.698678
20
50.963320
11
-21.426383
21
51.859394
0
LINE
8
0
10
-21.426383
20
51.859394
11
-21.333300
21
52.800200
0
LINE
8
0
10
-21.333300
20
52.800200
11
-21.333300
21
53.866900
0
LINE
8
0
10
-21.333300
20
53.866900
11
-21.426383
21
54.807706
0
LINE
8
0
10
-21.426383
20
54.807706
11
-21.698678
21
55.703780
0
LINE
8
0
10
-21.698678
20
55.703780
11
-22.139756
21
56.529942
0
LINE
8
0
10
-22.139756
20
56.529942
11
-22.739187
21
57.261013
0
LINE
8
0
10
-22.739187
20
57.261013
11
-23.470258
21
57.860444
0
LINE
8
0
10
-23.470258
20
57.860444
11
-24.296420
21
58.301522
0
LINE
8
0
10
-24.296420
20
58.301522
11
-25.192494
21
58.573817
0
LINE
8
0
10
-25.192494
20
58.573817
11
-26.133300
21
58.666900
0
LINE
8
0
10
-26.133300
20
58.666900
11
-69.866600
21
58.666900
0
LINE
8
0
10
-69.866600
20
58.666900
11
-70.807406
21
58.573817
0
LINE
8
0
10
-70.807406
20
58.573817
11
-71.703480
21
58.301522
0
LINE
8
0
10
-71.703480
20
58.301522
11
-72.529642
21
57.860444
0
LINE
8
0
10
-72.529642
20
57.860444
11
-73.260713
21
57.261013
0
LINE
8
0
10
-73.260713
20
57.261013
11
-73.860144
21
56.529942
0
LINE
8
0
10
-73.860144
20
56.529942
11
-74.301222
21
55.703780
0
LINE
8
0
10
-74.301222
20
55.703780
11
-74.573517
21
54.807706
0
LINE
8
0
10
-74.573517
20
54.807706
11
-74.666600
21
53.866900
0
LINE
8
0
10
-74.666600
20
53.866900
11
-74.666600
21
52.800200
0
LINE
8
0
10
-74.666600
20
52.800200
11
-74.573517
21
51.859394
0
LINE
8
0
10
-74.573517
20
51.859394
11
-74.301222
21
50.963320
0
LINE
8
0
10
-74.301222
20
50.963320
11
-73.860144
21
50.137158
0
LINE
8
0
10
-73.860144
20
50.137158
11
-73.260713
21
49.406087
0
LINE
8
0
10
-73.260713
20
49.406087
11
-72.529642
21
48.806656
0
LINE
8
0
10
-72.529642
20
48.806656
11
-71.703480
21
48.365578
0
LINE
8
0
10
-71.703480
20
48.365578
11
-70.807406
21
48.093283
0
LINE
8
0
10
-70.807406
20
48.093283
11
-69.866600
21
48.000200
0
LINE
8
0
10
-69.866600
20
48.000200
11
-50.133300
21
48.000200
0
LINE
8
0
10
-50.133300
20
48.000200
11
-50.133300
21
48.000200
0
LINE
8
0
10
-54.400000
20
70.895200
11
-54.400000
21
67.200200
0
LINE
8
0
10
-54.400000
20
67.200200
11
-58.666600
21
67.200200
0
LINE
8
0
10
-58.666600
20
67.200200
11
-58.666600
21
70.895200
0
LINE
8
0
10
-58.666600
20
70.895200
11
-59.753054
21
70.000276
0
LINE
8
0
10
-59.753054
20
70.000276
11
-60.475170
21
68.832951
0
LINE
8
0
10
-60.475170
20
68.832951
11
-60.789996
21
67.496918
0
LINE
8
0
10
-60.789996
20
67.496918
11
-60.654582
21
66.095871
0
LINE
8
0
10
-60.654582
20
66.095871
11
-60.071341
21
64.814816
0
LINE
8
0
10
-60.071341
20
64.814816
11
-59.130685
21
63.815183
0
LINE
8
0
10
-59.130685
20
63.815183
11
-57.921657
21
63.165298
0
LINE
8
0
10
-57.921657
20
63.165298
11
-56.533300
21
62.933487
0
LINE
8
0
10
-56.533300
20
62.933487
11
-55.144943
21
63.165298
0
LINE
8
0
10
-55.144943
20
63.165298
11
-53.935915
21
63.815183
0
LINE
8
0
10
-53.935915
20
63.815183
11
-52.995259
21
64.814816
0
LINE
8
0
10
-52.995259
20
64.814816
11
-52.412018
21
66.095871
0
LINE
8
0
10
-52.412018
20
66.095871
11
-52.276604
21
67.496918
0
LINE
8
0
10
-52.276604
20
67.496918
11
-52.591430
21
68.832951
0
LINE
8
0
10
-52.591430
20
68.832951
11
-53.313546
21
70.000276
0
LINE
8
0
10
-53.313546
20
70.000276
11
-54.400000
21
70.895200
0
LINE
8
0
10
-54.400000
20
70.895200
11
-54.400000
21
70.895200
0
LINE
8
0
10
-58.133300
20
74.840300
11
-58.133300
21
107.733000
0
LINE
8
0
10
-58.133300
20
107.733000
11
-53.866600
21
107.733000
0
LINE
8
0
10
-53.866600
20
107.733000
11
-53.866600
21
74.840300
0
LINE
8
0
10
-53.866600
20
74.840300
11
-52.630972
21
75.225612
0
LINE
8
0
10
-52.630972
20
75.225612
11
-51.504731
21
75.803734
0
LINE
8
0
10
-51.504731
20
75.803734
11
-50.504941
21
76.553451
0
LINE
8
0
10
-50.504941
20
76.553451
11
-49.648667
21
77.453550
0
LINE
8
0
10
-49.648667
20
77.453550
11
-48.952972
21
78.482818
0
LINE
8
0
10
-48.952972
20
78.482818
11
-48.434919
21
79.620041
0
LINE
8
0
10
-48.434919
20
79.620041
11
-48.111574
21
80.844006
0
LINE
8
0
10
-48.111574
20
80.844006
11
-48.000000
21
82.133500
0
LINE
8
0
10
-48.000000
20
82.133500
11
-48.000000
21
141.867000
0
LINE
8
0
10
-48.000000
20
141.867000
11
-48.137775
21
143.299989
0
LINE
8
0
10
-48.137775
20
143.299989
11
-48.534101
21
144.643542
0
LINE
8
0
10
-48.534101
20
144.643542
11
-49.163831
21
145.870646
0
LINE
8
0
10
-49.163831
20
145.870646
11
-50.001815
21
146.954290
0
LINE
8
0
10
-50.001815
20
146.954290
11
-51.022903
21
147.867459
0
LINE
8
0
10
-51.022903
20
147.867459
11
-52.201946
21
148.583143
0
LINE
8
0
10
-52.201946
20
148.583143
11
-53.513795
21
149.074327
0
LINE
8
0
10
-53.513795
20
149.074327
11
-54.933300
21
149.314000
0
LINE
8
0
10
-54.933300
20
149.314000
11
-54.933300
21
145.067000
0
LINE
8
0
10
-54.933300
20
145.067000
11
-53.866600
21
145.067000
0
LINE
8
0
10
-53.866600
20
145.067000
11
-53.866600
21
140.800000
0
LINE
8
0
10
-53.866600
20
140.800000
11
-58.133300
21
140.800000
0
LINE
8
0
10
-58.133300
20
140.800000
11
-58.133300
21
145.067000
0
LINE
8
0
10
-58.133300
20
145.067000
11
-57.066600
21
145.067000
0
LINE
8
0
10
-57.066600
20
145.067000
11
-57.066600
21
149.314000
0
LINE
8
0
10
-57.066600
20
149.314000
11
-58.486105
21
149.074327
0
LINE
8
0
10
-58.486105
20
149.074327
11
-59.797954
21
148.583143
0
LINE
8
0
10
-59.797954
20
148.583143
11
-60.976997
21
147.867459
0
LINE
8
0
10
-60.976997
20
147.867459
11
-61.998085
21
146.954290
0
LINE
8
0
10
-61.998085
20
146.954290
11
-62.836069
21
145.870646
0
LINE
8
0
10
-62.836069
20
145.870646
11
-63.465799
21
144.643542
0
LINE
8
0
10
-63.465799
20
144.643542
11
-63.862125
21
143.299989
0
LINE
8
0
10
-63.862125
20
143.299989
11
-63.999900
21
141.867000
0
LINE
8
0
10
-63.999900
20
141.867000
11
-63.999900
21
82.133500
0
LINE
8
0
10
-63.999900
20
82.133500
11
-63.888326
21
80.844006
0
LINE
8
0
10
-63.888326
20
80.844006
11
-63.564981
21
79.620041
0
LINE
8
0
10
-63.564981
20
79.620041
11
-63.046928
21
78.482818
0
LINE
8
0
10
-63.046928
20
78.482818
11
-62.351233
21
77.453550
0
LINE
8
0
10
-62.351233
20
77.453550
11
-61.494959
21
76.553451
0
LINE
8
0
10
-61.494959
20
76.553451
11
-60.495169
21
75.803734
0
LINE
8
0
10
-60.495169
20
75.803734
11
-59.368928
21
75.225612
0
LINE
8
0
10
-59.368928
20
75.225612
11
-58.133300
21
74.840300
0
LINE
8
0
10
-58.133300
20
74.840300
11
-58.133300
21
74.840300
0
LINE
8
0
10
-36.800000
20
74.840300
11
-36.800000
21
107.733000
0
LINE
8
0
10
-36.800000
20
107.733000
11
-32.533300
21
107.733000
0
LINE
8
0
10
-32.533300
20
107.733000
11
-32.533300
21
74.840300
0
LINE
8
0
10
-32.533300
20
74.840300
11
-31.297657
21
75.225599
0
LINE
8
0
10
-31.297657
20
75.225599
11
-30.171400
21
75.803712
0
LINE
8
0
10
-30.171400
20
75.803712
11
-29.171595
21
76.553425
0
LINE
8
0
10
-29.171595
20
76.553425
11
-28.315306
21
77.453523
0
LINE
8
0
10
-28.315306
20
77.453523
11
-27.619597
21
78.482794
0
LINE
8
0
10
-27.619597
20
78.482794
11
-27.101534
21
79.620023
0
LINE
8
0
10
-27.101534
20
79.620023
11
-26.778180
21
80.843996
0
LINE
8
0
10
-26.778180
20
80.843996
11
-26.666600
21
82.133500
0
LINE
8
0
10
-26.666600
20
82.133500
11
-26.666600
21
141.867000
0
LINE
8
0
10
-26.666600
20
141.867000
11
-26.804378
21
143.300001
0
LINE
8
0
10
-26.804378
20
143.300001
11
-27.200713
21
144.643564
0
LINE
8
0
10
-27.200713
20
144.643564
11
-27.830454
21
145.870675
0
LINE
8
0
10
-27.830454
20
145.870675
11
-28.668451
21
146.954322
0
LINE
8
0
10
-28.668451
20
146.954322
11
-29.689555
21
147.867491
0
LINE
8
0
10
-29.689555
20
147.867491
11
-30.868614
21
148.583169
0
LINE
8
0
10
-30.868614
20
148.583169
11
-32.180479
21
149.074343
0
LINE
8
0
10
-32.180479
20
149.074343
11
-33.600000
21
149.314000
0
LINE
8
0
10
-33.600000
20
149.314000
11
-33.600000
21
145.067000
0
LINE
8
0
10
-33.600000
20
145.067000
11
-32.533300
21
145.067000
0
LINE
8
0
10
-32.533300
20
145.067000
11
-32.533300
21
140.800000
0
LINE
8
0
10
-32.533300
20
140.800000
11
-36.800000
21
140.800000
0
LINE
8
0
10
-36.800000
20
140.800000
11
-36.800000
21
145.067000
0
LINE
8
0
10
-36.800000
20
145.067000
11
-35.733300
21
145.067000
0
LINE
8
0
10
-35.733300
20
145.067000
11
-35.733300
21
149.314000
0
LINE
8
0
10
-35.733300
20
149.314000
11
-37.152805
21
149.074327
0
LINE
8
0
10
-37.152805
20
149.074327
11
-38.464654
21
148.583143
0
LINE
8
0
10
-38.464654
20
148.583143
11
-39.643697
21
147.867459
0
LINE
8
0
10
-39.643697
20
147.867459
11
-40.664785
21
146.954290
0
LINE
8
0
10
-40.664785
20
146.954290
11
-41.502769
21
145.870646
0
LINE
8
0
10
-41.502769
20
145.870646
11
-42.132499
21
144.643542
0
LINE
8
0
10
-42.132499
20
144.643542
11
-42.528825
21
143.299989
0
LINE
8
0
10
-42.528825
20
143.299989
11
-42.666600
21
141.867000
0
LINE
8
0
10
-42.666600
20
141.867000
11
-42.666600
21
82.133500
0
LINE
8
0
10
-42.666600
20
82.133500
11
-42.555026
21
80.844006
0
LINE
8
0
10
-42.555026
20
80.844006
11
-42.231681
21
79.620041
0
LINE
8
0
10
-42.231681
20
79.620041
11
-41.713628
21
78.482818
0
LINE
8
0
10
-41.713628
20
78.482818
11
-41.017933
21
77.453550
0
LINE
8
0
10
-41.017933
20
77.453550
11
-40.161659
21
76.553451
0
LINE
8
0
10
-40.161659
20
76.553451
11
-39.161869
21
75.803734
0
LINE
8
0
10
-39.161869
20
75.803734
11
-38.035628
21
75.225612
0
LINE
8
0
10
-38.035628
20
75.225612
11
-36.800000
21
74.840300
0
LINE
8
0
10
-36.800000
20
74.840300
11
-36.800000
21
74.840300
0
LINE
8
0
10
-41.600000
20
64.000200
11
-41.600000
21
65.066900
0
LINE
8
0
10
-41.600000
20
65.066900
11
-45.866600
21
65.066900
0
LINE
8
0
10
-45.866600
20
65.066900
11
-45.704233
21
64.250495
0
LINE
8
0
10
-45.704233
20
64.250495
11
-45.241797
21
63.558373
0
LINE
8
0
10
-45.241797
20
63.558373
11
-44.549697
21
63.095905
0
LINE
8
0
10
-44.549697
20
63.095905
11
-43.733300
21
62.933500
0
LINE
8
0
10
-43.733300
20
62.933500
11
-28.800000
21
62.933500
0
LINE
8
0
10
-28.800000
20
62.933500
11
-27.983572
21
63.095877
0
LINE
8
0
10
-27.983572
20
63.095877
11
-27.291438
21
63.558338
0
LINE
8
0
10
-27.291438
20
63.558338
11
-26.828977
21
64.250472
0
LINE
8
0
10
-26.828977
20
64.250472
11
-26.666600
21
65.066900
0
LINE
8
0
10
-26.666600
20
65.066900
11
-30.933300
21
65.066900
0
LINE
8
0
10
-30.933300
20
65.066900
11
-30.933300
21
64.000200
0
LINE
8
0
10
-30.933300
20
64.000200
11
-35.200000
21
64.000200
0
LINE
8
0
10
-35.200000
20
64.000200
11
-35.200000
21
68.266900
0
LINE
8
0
10
-35.200000
20
68.266900
11
-30.933300
21
68.266900
0
LINE
8
0
10
-30.933300
20
68.266900
11
-30.933300
21
67.200200
0
LINE
8
0
10
-30.933300
20
67.200200
11
-26.666600
21
67.200200
0
LINE
8
0
10
-26.666600
20
67.200200
11
-26.829005
21
68.016597
0
LINE
8
0
10
-26.829005
20
68.016597
11
-27.291473
21
68.708697
0
LINE
8
0
10
-27.291473
20
68.708697
11
-27.983595
21
69.171133
0
LINE
8
0
10
-27.983595
20
69.171133
11
-28.800000
21
69.333500
0
LINE
8
0
10
-28.800000
20
69.333500
11
-43.733300
21
69.333500
0
LINE
8
0
10
-43.733300
20
69.333500
11
-44.563671
21
69.165847
0
LINE
8
0
10
-44.563671
20
69.165847
11
-45.241762
21
68.708662
0
LINE
8
0
10
-45.241762
20
68.708662
11
-45.698947
21
68.030571
0
LINE
8
0
10
-45.698947
20
68.030571
11
-45.866600
21
67.200200
0
LINE
8
0
10
-45.866600
20
67.200200
11
-41.600000
21
67.200200
0
LINE
8
0
10
-41.600000
20
67.200200
11
-41.600000
21
68.266900
0
LINE
8
0
10
-41.600000
20
68.266900
11
-37.333300
21
68.266900
0
LINE
8
0
10
-37.333300
20
68.266900
11
-37.333300
21
64.000200
0
LINE
8
0
10
-37.333300
20
64.000200
11
-41.600000
21
64.000200
0
LINE
8
0
10
-41.600000
20
64.000200
11
-41.600000
21
64.000200
0
LINE
8
0
10
2.133330
20
93.226600
11
2.133330
21
72.693300
0
LINE
8
0
10
2.133330
20
72.693300
11
-2.133330
21
72.693300
0
LINE
8
0
10
-2.133330
20
72.693300
11
-2.133330
21
93.226600
0
LINE
8
0
10
-2.133330
20
93.226600
11
-5.391156
21
92.642043
0
LINE
8
0
10
-5.391156
20
92.642043
11
-8.465442
21
91.583317
0
LINE
8
0
10
-8.465442
20
91.583317
11
-11.313316
21
90.087209
0
LINE
8
0
10
-11.313316
20
90.087209
11
-13.891902
21
88.190506
0
LINE
8
0
10
-13.891902
20
88.190506
11
-16.158327
21
85.929997
0
LINE
8
0
10
-16.158327
20
85.929997
11
-18.069718
21
83.342467
0
LINE
8
0
10
-18.069718
20
83.342467
11
-19.583200
21
80.464706
0
LINE
8
0
10
-19.583200
20
80.464706
11
-20.655900
21
77.333500
0
LINE
8
0
10
-20.655900
20
77.333500
11
-16.000000
21
77.333500
0
LINE
8
0
10
-16.000000
20
77.333500
11
-16.000000
21
66.666900
0
LINE
8
0
10
-16.000000
20
66.666900
11
-20.655900
21
66.666900
0
LINE
8
0
10
-20.655900
20
66.666900
11
-19.856858
21
64.201158
0
LINE
8
0
10
-19.856858
20
64.201158
11
-18.778001
21
61.875498
0
LINE
8
0
10
-18.778001
20
61.875498
11
-17.437863
21
59.710509
0
LINE
8
0
10
-17.437863
20
59.710509
11
-15.854979
21
57.726779
0
LINE
8
0
10
-15.854979
20
57.726779
11
-14.047883
21
55.944895
0
LINE
8
0
10
-14.047883
20
55.944895
11
-12.035108
21
54.385445
0
LINE
8
0
10
-12.035108
20
54.385445
11
-9.835189
21
53.069017
0
LINE
8
0
10
-9.835189
20
53.069017
11
-7.466660
21
52.016200
0
LINE
8
0
10
-7.466660
20
52.016200
11
-7.466660
21
48.000200
0
LINE
8
0
10
-7.466660
20
48.000200
11
-5.333330
21
48.000200
0
LINE
8
0
10
-5.333330
20
48.000200
11
-5.333330
21
52.266900
0
LINE
8
0
10
-5.333330
20
52.266900
11
5.333330
21
52.266900
0
LINE
8
0
10
5.333330
20
52.266900
11
5.333330
21
48.000200
0
LINE
8
0
10
5.333330
20
48.000200
11
7.466660
21
48.000200
0
LINE
8
0
10
7.466660
20
48.000200
11
7.466660
21
52.016200
0
LINE
8
0
10
7.466660
20
52.016200
11
9.165381
21
52.735337
0
LINE
8
0
10
9.165381
20
52.735337
11
10.774447
21
53.585705
0
LINE
8
0
10
10.774447
20
53.585705
11
12.288981
21
54.559211
0
LINE
8
0
10
12.288981
20
54.559211
11
13.704107
21
55.647762
0
LINE
8
0
10
13.704107
20
55.647762
11
16.216632
21
58.137633
0
LINE
8
0
10
16.216632
20
58.137633
11
18.273017
21
60.990576
0
LINE
8
0
10
18.273017
20
60.990576
11
19.834254
21
64.141852
0
LINE
8
0
10
19.834254
20
64.141852
11
20.861338
21
67.526721
0
LINE
8
0
10
20.861338
20
67.526721
11
21.162382
21
69.286521
0
LINE
8
0
10
21.162382
20
69.286521
11
21.315261
21
71.080443
0
LINE
8
0
10
21.315261
20
71.080443
11
21.315097
21
72.900393
0
LINE
8
0
10
21.315097
20
72.900393
11
21.157016
21
74.738278
0
LINE
8
0
10
21.157016
20
74.738278
11
20.842018
21
76.555856
0
LINE
8
0
10
20.842018
20
76.555856
11
20.378870
21
78.315888
0
LINE
8
0
10
20.378870
20
78.315888
11
19.774349
21
80.011789
0
LINE
8
0
10
19.774349
20
80.011789
11
19.035230
21
81.636974
0
LINE
8
0
10
19.035230
20
81.636974
11
17.180297
21
84.648861
0
LINE
8
0
10
17.180297
20
84.648861
11
14.868274
21
87.298871
0
LINE
8
0
10
14.868274
20
87.298871
11
12.153363
21
89.534327
0
LINE
8
0
10
12.153363
20
89.534327
11
9.089768
21
91.302552
0
LINE
8
0
10
9.089768
20
91.302552
11
7.444151
21
91.994991
0
LINE
8
0
10
7.444151
20
91.994991
11
5.731689
21
92.550868
0
LINE
8
0
10
5.731689
20
92.550868
11
3.959157
21
92.963600
0
LINE
8
0
10
3.959157
20
92.963600
11
2.133330
21
93.226600
0
LINE
8
0
10
2.133330
20
93.226600
11
2.133330
21
93.226600
0
LINE
8
0
10
112.000000
20
196.267000
11
112.000000
21
192.000000
0
LINE
8
0
10
112.000000
20
192.000000
11
113.581403
21
191.921707
0
LINE
8
0
10
113.581403
20
191.921707
11
115.136021
21
191.689724
0
LINE
8
0
10
115.136021
20
191.689724
11
116.653362
21
191.308397
0
LINE
8
0
10
116.653362
20
191.308397
11
118.122935
21
190.782073
0
LINE
8
0
10
118.122935
20
190.782073
11
119.534247
21
190.115096
0
LINE
8
0
10
119.534247
20
190.115096
11
120.876808
21
189.311812
0
LINE
8
0
10
120.876808
20
189.311812
11
122.140126
21
188.376568
0
LINE
8
0
10
122.140126
20
188.376568
11
123.313708
21
187.313708
0
LINE
8
0
10
123.313708
20
187.313708
11
124.376568
21
186.140126
0
LINE
8
0
10
124.376568
20
186.140126
11
125.311812
21
184.876808
0
LINE
8
0
10
125.311812
20
184.876808
11
126.115096
21
183.534247
0
LINE
8
0
10
126.115096
20
183.534247
11
126.782073
21
182.122935
0
LINE
8
0
10
126.782073
20
182.122935
11
127.308397
21
180.653362
0
LINE
8
0
10
127.308397
20
180.653362
11
127.689724
21
179.136021
0
LINE
8
0
10
127.689724
20
179.136021
11
127.921707
21
177.581403
0
LINE
8
0
10
127.921707
20
177.581403
11
128.000000
21
176.000000
0
LINE
8
0
10
128.000000
20
176.000000
11
123.733000
21
176.000000
0
LINE
8
0
10
123.733000
20
176.000000
11
123.733000
21
177.067000
0
LINE
8
0
10
123.733000
20
177.067000
11
119.467000
21
177.067000
0
LINE
8
0
10
119.467000
20
177.067000
11
119.467000
21
172.800000
0
LINE
8
0
10
119.467000
20
172.800000
11
123.733000
21
172.800000
0
LINE
8
0
10
123.733000
20
172.800000
11
123.733000
21
173.867000
0
LINE
8
0
10
123.733000
20
173.867000
11
128.000000
21
173.867000
0
LINE
8
0
10
128.000000
20
173.867000
11
128.000000
21
119.288000
0
LINE
8
0
10
128.000000
20
119.288000
11
128.133333
21
118.544356
0
LINE
8
0
10
128.133333
20
118.544356
11
128.503894
21
117.910564
0
LINE
8
0
10
128.503894
20
117.910564
11
129.067008
21
117.439490
0
LINE
8
0
10
129.067008
20
117.439490
11
129.778000
21
117.184000
0
LINE
8
0
10
129.778000
20
117.184000
11
131.633404
21
116.696529
0
LINE
8
0
10
131.633404
20
116.696529
11
133.331963
21
115.906703
0
LINE
8
0
10
133.331963
20
115.906703
11
134.845772
21
114.847534
0
LINE
8
0
10
134.845772
20
114.847534
11
136.146931
21
113.552035
0
LINE
8
0
10
136.146931
20
113.552035
11
137.207536
21
112.053219
0
LINE
8
0
10
137.207536
20
112.053219
11
137.999684
21
110.384099
0
LINE
8
0
10
137.999684
20
110.384099
11
138.495473
21
108.577689
0
LINE
8
0
10
138.495473
20
108.577689
11
138.667000
21
106.667000
0
LINE
8
0
10
138.667000
20
106.667000
11
138.667000
21
80.000200
0
LINE
8
0
10
138.667000
20
80.000200
11
138.549565
21
77.500423
0
LINE
8
0
10
138.549565
20
77.500423
11
138.201328
21
75.038774
0
LINE
8
0
10
138.201328
20
75.038774
11
137.628180
21
72.630321
0
LINE
8
0
10
137.628180
20
72.630321
11
136.836014
21
70.290134
0
LINE
8
0
10
136.836014
20
70.290134
11
135.830722
21
68.033279
0
LINE
8
0
10
135.830722
20
68.033279
11
134.618194
21
65.874827
0
LINE
8
0
10
134.618194
20
65.874827
11
133.204323
21
63.829844
0
LINE
8
0
10
133.204323
20
63.829844
11
131.595000
21
61.913400
0
LINE
8
0
10
131.595000
20
61.913400
11
128.625000
21
64.883900
0
LINE
8
0
10
128.625000
20
64.883900
11
129.379000
21
65.638100
0
LINE
8
0
10
129.379000
20
65.638100
11
126.362000
21
68.655100
0
LINE
8
0
10
126.362000
20
68.655100
11
123.345000
21
65.638100
0
LINE
8
0
10
123.345000
20
65.638100
11
126.362000
21
62.621100
0
LINE
8
0
10
126.362000
20
62.621100
11
127.116000
21
63.375400
0
LINE
8
0
10
127.116000
20
63.375400
11
130.087000
21
60.404900
0
LINE
8
0
10
130.087000
20
60.404900
11
128.170506
21
58.795644
0
LINE
8
0
10
128.170506
20
58.795644
11
126.125480
21
57.381842
0
LINE
8
0
10
126.125480
20
57.381842
11
123.966992
21
56.169387
0
LINE
8
0
10
123.966992
20
56.169387
11
121.710109
21
55.164170
0
LINE
8
0
10
121.710109
20
55.164170
11
119.369899
21
54.372081
0
LINE
8
0
10
119.369899
20
54.372081
11
116.961433
21
53.799012
0
LINE
8
0
10
116.961433
20
53.799012
11
114.499777
21
53.450855
0
LINE
8
0
10
114.499777
20
53.450855
11
112.000000
21
53.333500
0
LINE
8
0
10
112.000000
20
53.333500
11
108.800000
21
53.333500
0
LINE
8
0
10
108.800000
20
53.333500
11
108.800000
21
124.800000
0
LINE
8
0
10
108.800000
20
124.800000
11
104.533000
21
124.800000
0
LINE
8
0
10
104.533000
20
124.800000
11
104.533000
21
53.333500
0
LINE
8
0
10
104.533000
20
53.333500
11
101.333000
21
53.333500
0
LINE
8
0
10
101.333000
20
53.333500
11
98.833276
21
53.450888
0
LINE
8
0
10
98.833276
20
53.450888
11
96.371674
21
53.799068
0
LINE
8
0
10
96.371674
20
53.799068
11
93.963261
21
54.372150
0
LINE
8
0
10
93.963261
20
54.372150
11
91.623105
21
55.164243
0
LINE
8
0
10
91.623105
20
55.164243
11
89.366274
21
56.169455
0
LINE
8
0
10
89.366274
20
56.169455
11
87.207834
21
57.381896
0
LINE
8
0
10
87.207834
20
57.381896
11
85.162853
21
58.795675
0
LINE
8
0
10
85.162853
20
58.795675
11
83.246400
21
60.404900
0
LINE
8
0
10
83.246400
20
60.404900
11
86.216900
21
63.375400
0
LINE
8
0
10
86.216900
20
63.375400
11
86.971200
21
62.621100
0
LINE
8
0
10
86.971200
20
62.621100
11
89.988200
21
65.638100
0
LINE
8
0
10
89.988200
20
65.638100
11
86.971200
21
68.655100
0
LINE
8
0
10
86.971200
20
68.655100
11
83.954200
21
65.638100
0
LINE
8
0
10
83.954200
20
65.638100
11
84.708400
21
64.883900
0
LINE
8
0
10
84.708400
20
64.883900
11
81.737900
21
61.913400
0
LINE
8
0
10
81.737900
20
61.913400
11
80.128673
21
63.829879
0
LINE
8
0
10
80.128673
20
63.829879
11
78.714896
21
65.874885
0
LINE
8
0
10
78.714896
20
65.874885
11
77.502462
21
68.033351
0
LINE
8
0
10
77.502462
20
68.033351
11
76.497260
21
70.290209
0
LINE
8
0
10
76.497260
20
70.290209
11
75.705182
21
72.630391
0
LINE
8
0
10
75.705182
20
72.630391
11
75.132118
21
75.038828
0
LINE
8
0
10
75.132118
20
75.038828
11
74.783961
21
77.500454
0
LINE
8
0
10
74.783961
20
77.500454
11
74.666600
21
80.000200
0
LINE
8
0
10
74.666600
20
80.000200
11
74.666600
21
106.667000
0
LINE
8
0
10
74.666600
20
106.667000
11
74.838122
21
108.577678
0
LINE
8
0
10
74.838122
20
108.577678
11
75.333903
21
110.384080
0
LINE
8
0
10
75.333903
20
110.384080
11
76.126040
21
112.053194
0
LINE
8
0
10
76.126040
20
112.053194
11
77.186631
21
113.552007
0
LINE
8
0
10
77.186631
20
113.552007
11
78.487775
21
114.847506
0
LINE
8
0
10
78.487775
20
114.847506
11
80.001569
21
115.906680
0
LINE
8
0
10
80.001569
20
115.906680
11
81.700111
21
116.696515
0
LINE
8
0
10
81.700111
20
116.696515
11
83.555500
21
117.184000
0
LINE
8
0
10
83.555500
20
117.184000
11
84.266430
21
117.439535
0
LINE
8
0
10
84.266430
20
117.439535
11
84.829482
21
117.910620
0
LINE
8
0
10
84.829482
20
117.910620
11
85.199994
21
118.544395
0
LINE
8
0
10
85.199994
20
118.544395
11
85.333300
21
119.288000
0
LINE
8
0
10
85.333300
20
119.288000
11
85.333300
21
173.867000
0
LINE
8
0
10
85.333300
20
173.867000
11
89.599900
21
173.867000
0
LINE
8
0
10
89.599900
20
173.867000
11
89.599900
21
172.800000
0
LINE
8
0
10
89.599900
20
172.800000
11
93.866600
21
172.800000
0
LINE
8
0
10
93.866600
20
172.800000
11
93.866600
21
177.067000
0
LINE
8
0
10
93.866600
20
177.067000
11
89.599900
21
177.067000
0
LINE
8
0
10
89.599900
20
177.067000
11
89.599900
21
176.000000
0
LINE
8
0
10
89.599900
20
176.000000
11
85.333300
21
176.000000
0
LINE
8
0
10
85.333300
20
176.000000
11
85.415904
21
177.635886
0
LINE
8
0
10
85.415904
20
177.635886
11
85.658355
21
179.224518
0
LINE
8
0
10
85.658355
20
179.224518
11
86.052611
21
180.757853
0
LINE
8
0
10
86.052611
20
180.757853
11
86.590629
21
182.227849
0
LINE
8
0
10
86.590629
20
182.227849
11
87.264368
21
183.626465
0
LINE
8
0
10
87.264368
20
183.626465
11
88.065785
21
184.945657
0
LINE
8
0
10
88.065785
20
184.945657
11
90.019485
21
187.313602
0
LINE
8
0
10
90.019485
20
187.313602
11
92.387394
21
189.267348
0
LINE
8
0
10
92.387394
20
189.267348
11
93.706571
21
190.068789
0
LINE
8
0
10
93.706571
20
190.068789
11
95.105174
21
190.742554
0
LINE
8
0
10
95.105174
20
190.742554
11
96.575161
21
191.280600
0
LINE
8
0
10
96.575161
20
191.280600
11
98.108488
21
191.674884
0
LINE
8
0
10
98.108488
20
191.674884
11
99.697116
21
191.917365
0
LINE
8
0
10
99.697116
20
191.917365
11
101.333000
21
192.000000
0
LINE
8
0
10
101.333000
20
192.000000
11
101.333000
21
196.267000
0
LINE
8
0
10
101.333000
20
196.267000
11
112.000000
21
196.267000
0
LINE
8
0
10
112.000000
20
196.267000
11
112.000000
21
196.267000
 0 
ENDSEC
 0 
EOF